<?xml version="1.0" encoding="UTF-8" standalone="no"?>
<svg
   version="1.0"
   width="1472.000000pt"
   height="832.000000pt"
   viewBox="0 0 1472.000000 832.000000"
   preserveAspectRatio="xMidYMid meet"
   id="svg30"
   sodipodi:docname="logocolor.svg"
   inkscape:version="1.4.1 (93de688d07, 2025-03-30)"
   xmlns:inkscape="http://www.inkscape.org/namespaces/inkscape"
   xmlns:sodipodi="http://sodipodi.sourceforge.net/DTD/sodipodi-0.dtd"
   xmlns="http://www.w3.org/2000/svg"
   xmlns:svg="http://www.w3.org/2000/svg">
  <defs
     id="defs30" />
  <sodipodi:namedview
     id="namedview30"
     pagecolor="#ffffff"
     bordercolor="#000000"
     borderopacity="0.25"
     inkscape:showpageshadow="2"
     inkscape:pageopacity="0.0"
     inkscape:pagecheckerboard="0"
     inkscape:deskcolor="#d1d1d1"
     inkscape:document-units="pt"
     inkscape:zoom="1.2040788"
     inkscape:cx="897.7818"
     inkscape:cy="774.451"
     inkscape:window-width="3816"
     inkscape:window-height="2075"
     inkscape:window-x="12"
     inkscape:window-y="12"
     inkscape:window-maximized="1"
     inkscape:current-layer="svg30" />
  <metadata
     id="metadata1">
Created by potrace 1.16, written by Peter Selinger 2001-2019
</metadata>
  <g
     transform="translate(0.000000,832.000000) scale(0.100000,-0.100000)"
     fill="#000000"
     stroke="none"
     id="g30"
     style="fill:#5ea4ab;fill-opacity:1">
    <path
       d="M5365 5772 c-78 -17 -395 -150 -565 -238 -184 -95 -412 -242 -560 -361 -76 -61 -384 -362 -377 -369 1 -2 55 23 120 56 380 190 667 251 745 158 23 -28 52 -147 59 -243 l8 -100 51 95 c28 52 76 130 105 174 30 43 59 85 64 94 6 9 22 30 37 47 17 18 26 37 22 48 -3 11 0 17 10 17 9 0 16 7 16 16 0 8 7 22 15 30 9 9 13 25 9 38 -3 14 1 29 10 38 8 9 13 18 10 21 -3 3 3 25 13 49 11 24 18 49 15 56 -2 6 1 12 6 12 6 0 9 8 8 17 -2 10 6 26 16 38 11 11 27 37 35 58 9 21 24 42 34 48 11 5 19 15 19 21 0 6 8 17 18 24 9 7 17 17 17 23 0 5 7 16 16 23 9 7 28 34 43 59 28 49 23 60 -19 51z"
       id="path1"
       style="fill:#5567b4;fill-opacity:1" />
    <path
       d="M7720 5694 c-25 -2 -103 -9 -175 -14 -295 -24 -518 -65 -958 -176 -119 -30 -316 -74 -436 -99 -372 -76 -497 -136 -711 -341 l-95 -92 96 47 c151 74 310 107 629 131 254 19 395 51 595 135 393 165 564 221 856 280 189 39 410 64 610 70 198 6 313 14 306 21 -22 22 -568 51 -717 38z"
       id="path2"
       style="fill:#ab5e5e;fill-opacity:1" />
    <path
       d="M8225 5234 c-234 -20 -462 -72 -1070 -244 -137 -38 -272 -69 -405 -91 -177 -31 -542 -34 -685 -6 -115 22 -136 20 -60 -4 182 -59 665 -135 923 -145 330 -14 579 32 917 168 460 186 777 243 1207 218 225 -12 314 -23 559 -66 216 -37 235 -40 169 -18 -221 71 -557 140 -827 170 -133 14 -625 26 -728 18z"
       id="path3"
       style="fill:#f0f07a;fill-opacity:1" />
    <path
       d="M3893 4536 c-179 -36 -356 -188 -413 -357 -77 -226 11 -485 209 -618 208 -139 455 -133 667 15 139 98 215 246 215 423 0 155 -46 268 -155 376 -144 143 -328 199 -523 161z m241 -232 c82 -29 161 -109 191 -194 24 -69 20 -177 -10 -237 -57 -113 -154 -174 -289 -181 -65 -3 -92 0 -137 17 -75 29 -141 88 -176 159 -24 49 -28 69 -28 142 0 73 4 92 27 136 35 66 77 108 142 141 84 43 187 49 280 17z"
       id="path4"
       style="fill:#5ea4ab;fill-opacity:1" />
    <path
       d="M8635 4539 c-271 -27 -475 -252 -475 -524 0 -366 365 -631 717 -520 395 124 510 593 218 890 -118 119 -276 172 -460 154z m197 -244 c152 -53 237 -242 179 -396 -30 -78 -80 -132 -157 -170 -57 -28 -76 -33 -144 -33 -68 0 -87 5 -144 33 -111 55 -176 157 -176 280 0 77 23 140 71 195 95 107 228 140 371 91z"
       id="path5"
       style="fill:#5ea4ab;fill-opacity:1" />
    <path
       d="M10695 4474 c-66 -29 -124 -54 -129 -56 -5 -3 -4 -38 3 -84 7 -43 13 -93 15 -111 1 -18 5 -35 8 -38 3 -3 41 6 84 20 44 13 82 25 86 25 4 0 9 -161 10 -357 l3 -358 130 -3 c72 -1 135 1 140 5 7 5 9 183 7 511 l-3 502 -117 -1 -117 -1 -120 -54z"
       id="path6"
       style="fill:#5ea4ab;fill-opacity:1" />
    <path
       d="M11240 4024 l0 -506 253 5 c276 5 344 16 464 74 347 169 346 704 -2 869 -115 55 -178 64 -462 64 l-253 0 0 -506z m519 240 c65 -19 135 -84 150 -140 16 -56 13 -145 -4 -195 -35 -99 -109 -140 -262 -147 l-103 -5 0 252 0 251 83 0 c47 0 107 -7 136 -16z"
       id="path7"
       style="fill:#5ea4ab;fill-opacity:1" />
    <path
       d="M2440 4488 c0 -43 51 -130 92 -160 30 -21 45 -23 181 -26 l147 -3 2 -47 c1 -26 2 -162 2 -302 l1 -255 27 -51 c36 -68 133 -144 185 -144 17 0 18 21 18 398 l0 397 203 3 c128 1 202 6 202 13 0 18 -30 83 -62 132 -51 80 -29 77 -543 77 l-455 0 0 -32z"
       id="path8"
       style="fill:#5ea4ab;fill-opacity:1" />
    <path
       d="M4534 4505 c-7 -18 36 -112 68 -145 46 -51 78 -64 168 -68 47 -2 93 -9 103 -14 25 -13 87 -112 198 -317 109 -202 132 -231 182 -231 54 0 74 27 260 350 71 122 134 211 155 218 10 3 12 -74 10 -380 l-2 -384 28 -50 c42 -73 176 -271 192 -285 12 -10 14 81 12 652 l-3 664 -115 3 c-97 2 -124 -1 -175 -19 -117 -42 -161 -87 -270 -282 -44 -78 -85 -141 -90 -141 -5 1 -40 55 -76 120 -93 166 -144 233 -206 270 -69 41 -140 54 -300 54 -108 0 -135 -3 -139 -15z"
       id="path9"
       style="fill:#5ea4ab;fill-opacity:1" />
    <path
       d="M6524 4503 c6 -15 335 -633 477 -895 l52 -98 124 0 c67 0 123 2 123 4 0 5 -243 467 -324 616 -35 63 -91 169 -126 235 -34 66 -69 128 -78 138 -13 14 -33 17 -135 17 -108 0 -119 -2 -113 -17z"
       id="path10"
       style="fill:#5ea4ab;fill-opacity:1" />
    <path
       d="M7090 4504 c0 -29 58 -138 88 -167 40 -38 83 -46 238 -47 l132 0 6 -297 c7 -319 13 -354 62 -413 28 -33 117 -80 151 -80 l23 0 0 395 0 395 205 0 c143 0 205 3 205 11 0 27 -76 152 -111 184 l-39 35 -480 0 c-434 0 -480 -2 -480 -16z"
       id="path11"
       style="fill:#5ea4ab;fill-opacity:1" />
    <path
       d="M9320 4411 l0 -109 283 -4 c243 -3 286 -5 313 -20 36 -19 44 -35 44 -82 0 -22 -8 -40 -26 -57 l-26 -24 -279 -3 -279 -3 0 -221 c0 -337 18 -379 167 -387 l73 -3 0 168 c0 93 3 186 6 207 l7 37 66 0 66 -1 47 -97 c95 -196 211 -291 380 -309 l61 -6 -8 99 c-4 54 -9 102 -12 107 -2 4 -13 7 -24 7 -56 0 -122 58 -168 147 -27 54 -27 67 4 81 46 21 112 92 135 144 32 74 31 178 -3 250 -41 90 -98 138 -199 169 -52 17 -95 19 -344 19 l-284 0 0 -109z"
       id="path12"
       style="fill:#5ea4ab;fill-opacity:1" />
    <path
       d="M6308 4149 c-80 -156 -187 -364 -237 -461 -54 -105 -87 -179 -81 -183 11 -7 150 -5 212 3 36 4 39 7 99 121 34 64 114 213 177 330 l116 215 -58 113 c-32 62 -64 120 -71 129 -10 14 -33 -25 -157 -267z"
       id="path13"
       style="fill:#5ea4ab;fill-opacity:1" />
    <path
       d="M6628 4048 c-88 -134 -93 -199 -29 -393 24 -71 46 -134 50 -138 4 -4 71 -6 149 -5 l142 3 -141 270 c-78 149 -145 274 -149 278 -4 4 -14 -2 -22 -15z"
       id="path14"
       style="fill:#5ea4ab;fill-opacity:1" />
    <path
       d="M4791 3692 c-28 -192 -94 -351 -185 -443 -30 -31 -70 -63 -89 -72 -72 -34 -196 -16 -306 46 -36 19 -36 19 9 -23 141 -131 220 -193 366 -285 253 -159 576 -290 959 -390 173 -45 423 -99 505 -109 25 -3 119 -14 210 -25 503 -61 1228 -48 1925 34 116 14 248 32 295 39 l85 15 -165 -7 c-91 -4 -343 -7 -560 -7 -400 1 -544 8 -835 45 -207 26 -208 27 -319 50 -55 11 -101 18 -103 16 -3 -2 9 -7 26 -11 37 -8 58 -30 39 -42 -27 -17 -183 -30 -268 -22 -171 17 -418 78 -547 135 -17 8 -39 11 -49 7 -11 -4 -15 -3 -11 4 9 14 -17 24 -40 17 -15 -5 -15 -4 -4 4 12 9 9 12 -15 18 -16 4 -33 10 -39 14 -5 4 -31 20 -57 34 -27 14 -69 38 -95 52 -153 83 -398 314 -496 465 -100 155 -166 302 -197 439 -20 88 -26 89 -39 2z"
       id="path15"
       style="fill:#f3a542;fill-opacity:1" />
  </g>
  <path
     style="fill:#f3a542;fill-opacity:1;stroke:#f3a542;stroke-width:1.41732;stroke-opacity:1"
     d="m 535.14204,542.50147 c 58.97922,44.57506 132.24176,41.69334 132.24176,41.69334 l -71.35204,3.08312 z"
     id="path31" />
  <path
     style="fill:#5567b4;fill-opacity:1;stroke:#5567b4;stroke-width:1.41732;stroke-opacity:1"
     d="m 492.52727,341.12441 c 65.84647,-90.07094 46.57702,-86.54739 46.57702,-86.54739 l -55.49603,48.77925 z"
     id="path32" />
</svg>
