<?xml version="1.0" encoding="UTF-8" standalone="no"?>
<svg
   version="1.0"
   width="1472.000000pt"
   height="832.000000pt"
   viewBox="0 0 1472.000000 832.000000"
   preserveAspectRatio="xMidYMid meet"
   id="svg30"
   sodipodi:docname="logocolortorus.svg"
   inkscape:version="1.4.2 (ebf0e940d0, 2025-05-08)"
   xmlns:inkscape="http://www.inkscape.org/namespaces/inkscape"
   xmlns:sodipodi="http://sodipodi.sourceforge.net/DTD/sodipodi-0.dtd"
   xmlns="http://www.w3.org/2000/svg"
   xmlns:svg="http://www.w3.org/2000/svg">
  <defs
     id="defs30" />
  <sodipodi:namedview
     id="namedview30"
     pagecolor="#ffffff"
     bordercolor="#000000"
     borderopacity="0.25"
     inkscape:showpageshadow="2"
     inkscape:pageopacity="0.0"
     inkscape:pagecheckerboard="0"
     inkscape:deskcolor="#d1d1d1"
     inkscape:document-units="pt"
     inkscape:zoom="0.85141228"
     inkscape:cx="1354.8078"
     inkscape:cy="439.85741"
     inkscape:window-width="3009"
     inkscape:window-height="1917"
     inkscape:window-x="2160"
     inkscape:window-y="70"
     inkscape:window-maximized="1"
     inkscape:current-layer="g30" />
  <metadata
     id="metadata1">
Created by potrace 1.16, written by Peter Selinger 2001-2019
</metadata>
  <g
     transform="translate(0.000000,832.000000) scale(0.100000,-0.100000)"
     fill="#000000"
     stroke="none"
     id="g30"
     style="fill:#5ea4ab;fill-opacity:1">
    <path
       d="M5365 5772 c-78 -17 -395 -150 -565 -238 -184 -95 -412 -242 -560 -361 -76 -61 -384 -362 -377 -369 1 -2 55 23 120 56 380 190 667 251 745 158 23 -28 52 -147 59 -243 l8 -100 51 95 c28 52 76 130 105 174 30 43 59 85 64 94 6 9 22 30 37 47 17 18 26 37 22 48 -3 11 0 17 10 17 9 0 16 7 16 16 0 8 7 22 15 30 9 9 13 25 9 38 -3 14 1 29 10 38 8 9 13 18 10 21 -3 3 3 25 13 49 11 24 18 49 15 56 -2 6 1 12 6 12 6 0 9 8 8 17 -2 10 6 26 16 38 11 11 27 37 35 58 9 21 24 42 34 48 11 5 19 15 19 21 0 6 8 17 18 24 9 7 17 17 17 23 0 5 7 16 16 23 9 7 28 34 43 59 28 49 23 60 -19 51z"
       id="path1"
       style="fill:#5567b4;fill-opacity:1" />
    <path
       d="M7720 5694 c-25 -2 -103 -9 -175 -14 -295 -24 -518 -65 -958 -176 -119 -30 -316 -74 -436 -99 -372 -76 -497 -136 -711 -341 l-95 -92 96 47 c151 74 310 107 629 131 254 19 395 51 595 135 393 165 564 221 856 280 189 39 410 64 610 70 198 6 313 14 306 21 -22 22 -568 51 -717 38z"
       id="path2"
       style="fill:#ab5e5e;fill-opacity:1" />
    <path
       d="M8225 5234 c-234 -20 -462 -72 -1070 -244 -137 -38 -272 -69 -405 -91 -177 -31 -542 -34 -685 -6 -115 22 -136 20 -60 -4 182 -59 665 -135 923 -145 330 -14 579 32 917 168 460 186 777 243 1207 218 225 -12 314 -23 559 -66 216 -37 235 -40 169 -18 -221 71 -557 140 -827 170 -133 14 -625 26 -728 18z"
       id="path3"
       style="fill:#f0f07a;fill-opacity:1" />
    <path
       d="M8635 4539 c-271 -27 -475 -252 -475 -524 0 -366 365 -631 717 -520 395 124 510 593 218 890 -118 119 -276 172 -460 154z m197 -244 c152 -53 237 -242 179 -396 -30 -78 -80 -132 -157 -170 -57 -28 -76 -33 -144 -33 -68 0 -87 5 -144 33 -111 55 -176 157 -176 280 0 77 23 140 71 195 95 107 228 140 371 91z"
       id="path5"
       style="fill:#5ea4ab;fill-opacity:1" />
    <path
       d="M10695 4474 c-66 -29 -124 -54 -129 -56 -5 -3 -4 -38 3 -84 7 -43 13 -93 15 -111 1 -18 5 -35 8 -38 3 -3 41 6 84 20 44 13 82 25 86 25 4 0 9 -161 10 -357 l3 -358 130 -3 c72 -1 135 1 140 5 7 5 9 183 7 511 l-3 502 -117 -1 -117 -1 -120 -54z"
       id="path6"
       style="fill:#5ea4ab;fill-opacity:1" />
    <path
       d="M11240 4024 l0 -506 253 5 c276 5 344 16 464 74 347 169 346 704 -2 869 -115 55 -178 64 -462 64 l-253 0 0 -506z m519 240 c65 -19 135 -84 150 -140 16 -56 13 -145 -4 -195 -35 -99 -109 -140 -262 -147 l-103 -5 0 252 0 251 83 0 c47 0 107 -7 136 -16z"
       id="path7"
       style="fill:#5ea4ab;fill-opacity:1" />
    <path
       d="M2440 4488 c0 -43 51 -130 92 -160 30 -21 45 -23 181 -26 l147 -3 2 -47 c1 -26 2 -162 2 -302 l1 -255 27 -51 c36 -68 133 -144 185 -144 17 0 18 21 18 398 l0 397 203 3 c128 1 202 6 202 13 0 18 -30 83 -62 132 -51 80 -29 77 -543 77 l-455 0 0 -32z"
       id="path8"
       style="fill:#5ea4ab;fill-opacity:1" />
    <path
       d="M4534 4505 c-7 -18 36 -112 68 -145 46 -51 78 -64 168 -68 47 -2 93 -9 103 -14 25 -13 87 -112 198 -317 109 -202 132 -231 182 -231 54 0 74 27 260 350 71 122 134 211 155 218 10 3 12 -74 10 -380 l-2 -384 28 -50 c42 -73 176 -271 192 -285 12 -10 14 81 12 652 l-3 664 -115 3 c-97 2 -124 -1 -175 -19 -117 -42 -161 -87 -270 -282 -44 -78 -85 -141 -90 -141 -5 1 -40 55 -76 120 -93 166 -144 233 -206 270 -69 41 -140 54 -300 54 -108 0 -135 -3 -139 -15z"
       id="path9"
       style="fill:#5ea4ab;fill-opacity:1" />
    <path
       d="M6524 4503 c6 -15 335 -633 477 -895 l52 -98 124 0 c67 0 123 2 123 4 0 5 -243 467 -324 616 -35 63 -91 169 -126 235 -34 66 -69 128 -78 138 -13 14 -33 17 -135 17 -108 0 -119 -2 -113 -17z"
       id="path10"
       style="fill:#5ea4ab;fill-opacity:1" />
    <path
       d="M7090 4504 c0 -29 58 -138 88 -167 40 -38 83 -46 238 -47 l132 0 6 -297 c7 -319 13 -354 62 -413 28 -33 117 -80 151 -80 l23 0 0 395 0 395 205 0 c143 0 205 3 205 11 0 27 -76 152 -111 184 l-39 35 -480 0 c-434 0 -480 -2 -480 -16z"
       id="path11"
       style="fill:#5ea4ab;fill-opacity:1" />
    <path
       d="M9320 4411 l0 -109 283 -4 c243 -3 286 -5 313 -20 36 -19 44 -35 44 -82 0 -22 -8 -40 -26 -57 l-26 -24 -279 -3 -279 -3 0 -221 c0 -337 18 -379 167 -387 l73 -3 0 168 c0 93 3 186 6 207 l7 37 66 0 66 -1 47 -97 c95 -196 211 -291 380 -309 l61 -6 -8 99 c-4 54 -9 102 -12 107 -2 4 -13 7 -24 7 -56 0 -122 58 -168 147 -27 54 -27 67 4 81 46 21 112 92 135 144 32 74 31 178 -3 250 -41 90 -98 138 -199 169 -52 17 -95 19 -344 19 l-284 0 0 -109z"
       id="path12"
       style="fill:#5ea4ab;fill-opacity:1" />
    <path
       d="M6308 4149 c-80 -156 -187 -364 -237 -461 -54 -105 -87 -179 -81 -183 11 -7 150 -5 212 3 36 4 39 7 99 121 34 64 114 213 177 330 l116 215 -58 113 c-32 62 -64 120 -71 129 -10 14 -33 -25 -157 -267z"
       id="path13"
       style="fill:#5ea4ab;fill-opacity:1" />
    <path
       d="M6628 4048 c-88 -134 -93 -199 -29 -393 24 -71 46 -134 50 -138 4 -4 71 -6 149 -5 l142 3 -141 270 c-78 149 -145 274 -149 278 -4 4 -14 -2 -22 -15z"
       id="path14"
       style="fill:#5ea4ab;fill-opacity:1" />
    <path
       d="M4791 3692 c-28 -192 -94 -351 -185 -443 -30 -31 -70 -63 -89 -72 -72 -34 -196 -16 -306 46 -36 19 -36 19 9 -23 141 -131 220 -193 366 -285 253 -159 576 -290 959 -390 173 -45 423 -99 505 -109 25 -3 119 -14 210 -25 503 -61 1228 -48 1925 34 116 14 248 32 295 39 l85 15 -165 -7 c-91 -4 -343 -7 -560 -7 -400 1 -544 8 -835 45 -207 26 -208 27 -319 50 -55 11 -101 18 -103 16 -3 -2 9 -7 26 -11 37 -8 58 -30 39 -42 -27 -17 -183 -30 -268 -22 -171 17 -418 78 -547 135 -17 8 -39 11 -49 7 -11 -4 -15 -3 -11 4 9 14 -17 24 -40 17 -15 -5 -15 -4 -4 4 12 9 9 12 -15 18 -16 4 -33 10 -39 14 -5 4 -31 20 -57 34 -27 14 -69 38 -95 52 -153 83 -398 314 -496 465 -100 155 -166 302 -197 439 -20 88 -26 89 -39 2z"
       id="path15"
       style="fill:#f3a542;fill-opacity:1" />
    <path
       id="path283"
       d="m 3644.3571,4501.2447 -23.8824,-35.2113 -19.6939,-35.6764 -15.1833,-43.5248 -7.2694,-38.1762 -6.4639,-50.1912 1.9733,-57.303 5.3363,-33.3703 9.9276,-60.4426 17.7808,-65.0934 25.4531,-68.7948 32.642,-71.1978 39.2871,-72.2635 45.1671,-71.9148 50.2013,-70.19 54.269,-67.1476 57.3097,-62.8261 59.2025,-57.3419 59.9879,-50.8112 59.6455,-43.3891 58.1957,-35.2308 28.1312,-13.5652 59.0012,-28.1186 55.1148,-18.4098 50.4027,-8.6043 39.8308,-5.116 46.6573,1.2403 40.8779,6.7632 41.1598,11.4916 37.7969,17.9448 34.0315,21.5105 30.89,27.5373 25.9766,30.5991 21.1236,34.2036 17.5393,38.3313 9.3436,37.2848 9.283,44.3969 1.5305,50.9274 -2.9602,33.7774 -5.7188,54.0086 -12.787,58.5628 -19.553,62.3417 -26.0168,65.1129 -32.0177,66.8568 -37.5151,67.5545 -42.4285,67.2445 -46.6773,65.8685 -50.2215,63.4851 -53.0205,60.1518 -54.9737,55.8303 -56.1216,50.6174 -56.3632,44.5907 -55.7391,37.7887 -54.1885,30.3084 -51.7316,22.2082 -33.1655,13.9527 -51.3492,14.5728 -46.7982,5.1549 -40.8779,3.6238 -43.4354,-4.5153 -41.3008,-8.3716 -38.3608,-14.9218 -37.6157,-19.6887 -31.6754,-25.3089 z m 736.1653,-1167.4957 -40.2135,5.1548 -50.7651,8.6817 -55.598,18.5648 -87.5351,41.8777 -58.4777,35.3856 -59.8872,43.5636 -60.2093,50.9663 -59.3637,57.5163 -57.4506,62.981 -54.3898,67.3221 -50.3423,70.3839 -45.2879,72.089 -39.3878,72.4574 -32.7427,71.4304 -25.5537,69.0661 -17.8815,65.4229 -15.3041,94.2198 -1.9935,57.8069 6.4841,50.5593 7.37,38.5251 15.3645,44.048 19.8953,36.0833 24.3053,35.7927 30.2455,29.3783 32.0983,25.6187 38.1192,19.9797 38.8843,15.0766 41.7842,8.5073 43.9991,4.5541 41.2808,-3.6239 47.1404,-5.2323 52.0136,-14.7472 33.2865,-13.9916 51.933,-22.305 54.4904,-30.4828 55.9808,-37.9437 56.5846,-44.7457 56.2827,-50.7725 55.1349,-56.0047 53.1212,-60.2681 50.3422,-63.6594 46.7983,-66.0236 42.5291,-67.3995 37.6158,-67.7484 32.1184,-67.0507 26.0974,-65.3452 19.6537,-62.6131 12.8472,-58.9116 5.7593,-54.2218 2.9601,-34.0098 -1.5706,-51.4314 -9.3033,-44.765 -9.4845,-37.6724 -17.7406,-38.8158 -21.3855,-34.6299 -26.3189,-30.9868 -31.3129,-27.9054 -34.4744,-21.8011 -38.3004,-18.1774 -41.6634,-11.6467 -41.3611,-6.8213 -47.2211,-1.2596"
       style="fill:#5ea4ab;fill-opacity:1;fill-rule:nonzero;stroke:none;stroke-width:0.197542" />
    <path
       id="path284"
       d="m 4339.7452,3707.9343 c -0.8861,0 -1.6714,0.6008 -1.8325,1.4728 l -1.6513,8.2555 -13.5721,45.3658 -18.4053,47.4199 -22.9158,48.6795 -27.0841,49.1835 -30.7692,48.854 -34.0113,47.8075 -36.6693,45.9666 -38.8039,43.4084 -40.294,40.1336 -41.1598,36.219 -41.341,31.6844 -40.878,26.5877 -4.3495,2.306 c -0.9062,0.4845 -1.2284,1.5697 -0.7249,2.4417 0.4832,0.872 1.631,1.2016 2.5372,0.6977 l 4.4905,-2.3641 41.1196,-26.7816 41.5626,-31.8395 41.3411,-36.374 40.4551,-40.2885 38.9247,-43.5636 36.8303,-46.1215 34.112,-47.9625 30.89,-49.0479 27.1848,-49.3578 23.0164,-48.8928 18.506,-47.6524 13.6326,-45.6758 1.6915,-8.4298 c 0.2014,-0.969 -0.4631,-1.9185 -1.47,-2.093 -0.1208,-0.019 -0.2416,-0.038 -0.3624,-0.038"
       style="fill:#5ea4ab;fill-opacity:1;fill-rule:nonzero;stroke:none;stroke-width:0.197542" />
    <path
       id="path285"
       d="m 4411.0902,3681.0948 c -0.02,0 -0.02,0 -0.04,0 l -8.1757,0.097 c -1.0471,0.019 -1.8727,0.8333 -1.8526,1.8215 0.02,0.9884 0.8459,1.7829 1.8728,1.7829 h 0.02 l 8.1956,-0.1163 c 1.027,0 1.8525,-0.8139 1.8325,-1.8215 0,-0.969 -0.8458,-1.7635 -1.8526,-1.7635"
       style="fill:#5ea4ab;fill-opacity:1;fill-rule:nonzero;stroke:none;stroke-width:0.197542" />
    <path
       id="path286"
       d="m 4424.4209,3676.7539 c -0.141,0 -0.2617,0.02 -0.4028,0.038 l -31.8363,6.5693 -24.5068,8.9725 c -0.9665,0.3487 -1.4498,1.3759 -1.0874,2.306 0.3626,0.9302 1.4499,1.4147 2.4165,1.0465 l 24.2247,-8.8756 31.5747,-6.4919 c 1.0068,-0.213 1.6512,-1.1627 1.4297,-2.1316 -0.1813,-0.8526 -0.9464,-1.434 -1.8123,-1.434"
       style="fill:#5ea4ab;fill-opacity:1;fill-rule:nonzero;stroke:none;stroke-width:0.197542" />
    <path
       id="path287"
       d="m 4389.6646,3681.4048 c -0.2819,0 -0.5839,0.059 -0.8659,0.2131 l -40.0121,20.2509 -41.9453,26.549 -42.9116,32.3045 -43.1533,37.5367 -42.5898,42.1102 -41.2605,45.9083 -39.1462,48.9122 -36.347,51.005 -32.8232,52.1677 -28.7152,52.3422 -24.1039,51.5864 -19.0496,49.8617 -13.673,47.265 -8.0547,43.796 c -0.1813,0.9884 0.5035,1.9186 1.5103,2.093 1.0269,0.155 1.9935,-0.4845 2.1748,-1.4728 l 8.0145,-43.6218 13.5721,-46.9548 18.9691,-49.6098 23.9831,-51.3538 28.6347,-52.1677 32.7024,-51.974 36.2263,-50.85 39.0252,-48.7378 41.1197,-45.7726 42.4284,-41.9552 42.952,-37.3624 42.6903,-32.1494 41.6633,-26.3551 39.8509,-20.1734 c 0.9264,-0.4651 1.2687,-1.5503 0.7853,-2.4224 -0.3221,-0.62 -0.9665,-0.9689 -1.6511,-0.9689"
       style="fill:#5ea4ab;fill-opacity:1;fill-rule:nonzero;stroke:none;stroke-width:0.197542" />
    <path
       id="path288"
       d="m 3940.5509,4261.5676 c -0.9866,0 -1.7921,0.7364 -1.8525,1.686 l -1.3493,22.8475 3.081,32.0914 c 0.1009,0.9883 1.027,1.686 2.0339,1.6084 1.0269,-0.078 1.7922,-0.9689 1.6914,-1.9573 l -3.0809,-31.8006 1.3492,-22.5763 c 0.061,-0.9883 -0.7249,-1.8409 -1.7519,-1.8991 -0.04,0 -0.081,0 -0.1209,0"
       style="fill:#5ea4ab;fill-opacity:1;fill-rule:nonzero;stroke:none;stroke-width:0.197542" />
    <path
       id="path289"
       d="m 3940.5711,4298.3292 c -0.1813,0 -0.3624,0.038 -0.5437,0.078 -0.9867,0.2907 -1.5506,1.279 -1.2484,2.2285 l 1.4698,4.8059 c 0.282,0.9496 1.3291,1.4729 2.3158,1.2016 0.9868,-0.2714 1.5507,-1.279 1.2686,-2.2287 l -1.4699,-4.7866 c -0.2416,-0.7945 -0.9867,-1.2983 -1.7922,-1.2983"
       style="fill:#5ea4ab;fill-opacity:1;fill-rule:nonzero;stroke:none;stroke-width:0.197542" />
    <path
       id="path290"
       d="m 4327.3207,3981.9507 c -0.6041,0 -1.2083,0.2907 -1.5707,0.814 -0.5639,0.8139 -0.3222,1.9379 0.5235,2.4805 l 36.7298,23.4871 39.9315,22.3051 40.2939,19.4756 37.8374,15.3481 32.7224,10.1156 25.8156,4.3021 17.2371,-2.0929 6.6453,-8.4685 c 0.6242,-0.7946 0.4631,-1.9186 -0.3626,-2.5193 -0.8255,-0.6007 -1.9935,-0.4456 -2.6178,0.349 l -5.6987,7.2669 -15.1228,1.8217 -25.01,-4.1471 -32.3198,-9.9994 -37.5553,-15.2318 -40.0725,-19.3789 -39.7503,-22.208 -36.6291,-23.4097 c -0.3222,-0.2132 -0.6846,-0.3101 -1.0269,-0.3101"
       style="fill:#5ea4ab;fill-opacity:1;fill-rule:nonzero;stroke:none;stroke-width:0.197542" />
    <path
       id="path291"
       d="m 4327.3207,3981.9507 c -0.6445,0 -1.2485,0.3101 -1.6109,0.8721 l -25.2115,40.0367 -27.789,39.0871 c -0.5838,0.8138 -0.3624,1.9378 0.4833,2.4998 0.8659,0.5425 2.0339,0.3488 2.5978,-0.4651 l 27.8493,-39.1841 25.2718,-40.114 c 0.5436,-0.8527 0.2618,-1.9572 -0.6243,-2.4612 -0.302,-0.1937 -0.6443,-0.2713 -0.9665,-0.2713"
       style="fill:#5ea4ab;fill-opacity:1;fill-rule:nonzero;stroke:none;stroke-width:0.197542" />
    <path
       id="path292"
       d="m 4255.9555,3907.3424 c -0.1611,0 -0.3222,0.019 -0.4833,0.059 -0.9868,0.2519 -1.5908,1.2403 -1.3291,2.1899 l 3.2823,12.2086 -28.091,44.5907 -32.4404,45.6371 44.5226,30.4828 31.7559,21.9175 c 0.8458,0.5813 1.9935,0.3875 2.5977,-0.4264 0.6041,-0.7946 0.4228,-1.9184 -0.4229,-2.4999 l -73.2983,-50.3654 30.4269,-42.8079 28.977,-45.9666 -3.7053,-13.6619 c -0.2214,-0.814 -0.9666,-1.3566 -1.7921,-1.3566"
       style="fill:#5ea4ab;fill-opacity:1;fill-rule:nonzero;stroke:none;stroke-width:0.197542" />
    <path
       id="path293"
       d="m 4191.0542,4004.1783 c -0.584,0 -1.1679,0.2713 -1.5304,0.7751 -0.6041,0.8333 -0.3826,1.9572 0.4631,2.5192 l 6.8063,4.5153 -32.7628,41.0443 -37.676,42.1683 24.6273,7.5384 28.0305,14.2047 33.9107,21.6654 32.7627,-36.8003 28.9569,-36.374 140.6966,97.8436 55.9807,39.7266 c 0.6444,0.7945 1.8123,0.9108 2.6379,0.31 0.8054,-0.6201 0.9465,-1.7441 0.3021,-2.5192 l -0.8458,-0.9496 -10.0282,-7.2089 -45.8518,-32.2658 -143.6566,-99.8976 -31.0915,39.087 -30.5476,34.3005 -31.3332,-20.0183 -28.4735,-14.4179 -19.5529,-6.0074 34.0515,-38.1181 35.2195,-44.1256 -10.0284,-6.6662 c -0.322,-0.2133 -0.7047,-0.3295 -1.0671,-0.3295"
       style="fill:#5ea4ab;fill-opacity:1;fill-rule:nonzero;stroke:none;stroke-width:0.197542" />
    <path
       id="path294"
       d="m 4129.6165,4092.5069 c -0.4833,0 -0.9868,0.1937 -1.3493,0.562 l -37.2733,37.1492 -41.0995,36.1996 30.7491,2.5968 31.1115,11.4915 34.6758,20.5997 34.5549,-30.6185 31.7761,-31.8393 33.5279,25.0954 34.4543,29.359 31.7156,30.6379 26.8022,29.7852 19.9356,26.7815 11.6392,21.6655 2.7385,14.7862 -5.6584,7.9065 c -0.584,0.8138 -0.3826,1.9377 0.4833,2.4997 0.8458,0.5621 1.9936,0.3683 2.5977,-0.4649 l 6.5243,-9.1081 -3.2421,-17.0341 -11.9008,-22.1306 -20.1773,-27.1303 -27.0035,-29.9983 -31.8969,-30.8123 -34.6355,-29.4947 -36.2666,-27.1689 -34.0314,34.0872 -32.4003,28.7 -32.5614,-19.3207 -32.1788,-11.8404 -22.5532,-1.8991 34.9375,-30.7541 37.3539,-37.2268 c 0.7048,-0.717 0.6847,-1.8603 -0.04,-2.558 -0.3826,-0.3294 -0.8457,-0.5038 -1.309,-0.5038"
       style="fill:#5ea4ab;fill-opacity:1;fill-rule:nonzero;stroke:none;stroke-width:0.197542" />
    <path
       id="path295"
       d="m 4129.6165,4092.5069 c -0.06,0 -0.1009,0 -0.1611,0.02 l -14.1764,1.2015 c -1.027,0.078 -1.7923,0.9689 -1.6915,1.9572 0.081,0.9884 1.0068,1.6666 2.0137,1.6278 l 14.1764,-1.2014 c 1.027,-0.097 1.7921,-0.969 1.7116,-1.9573 -0.1009,-0.9301 -0.9063,-1.6472 -1.8727,-1.6472"
       style="fill:#5ea4ab;fill-opacity:1;fill-rule:nonzero;stroke:none;stroke-width:0.197542" />
    <path
       id="path296"
       d="m 4146.2294,4196.5323 -34.8369,26.9172 -32.0982,21.1035 -34.2932,-19.03 -34.7764,-9.5731 -32.0378,1.1627 c -1.0271,0.038 -1.8324,0.8721 -1.7923,1.8797 0.04,0.9884 0.866,1.6666 1.9332,1.7247 l 31.4338,-1.1627 33.9911,9.36 35.7028,19.8827 34.1722,-22.4601 32.5413,-25.1537 32.6621,26.2777 31.3733,32.3238 26.8828,35.3082 20.5397,35.7928 12.6056,33.5446 4.1079,29.1651 -4.6112,22.5182 -12.9682,15.038 c -0.6444,0.7558 -0.5438,1.8991 0.2617,2.5386 0.7853,0.6201 1.9733,0.5233 2.6178,-0.2519 l 13.5723,-15.7163 4.9336,-24.0103 -4.3296,-30.3279 -12.807,-33.9904 -20.7813,-36.2383 -27.1446,-35.6764 -31.6955,-32.6145 -35.159,-28.3319"
       style="fill:#5ea4ab;fill-opacity:1;fill-rule:nonzero;stroke:none;stroke-width:0.197542" />
    <path
       id="path297"
       d="m 4054.2843,4163.1814 c -0.4028,0 -0.8257,0.1163 -1.1681,0.3876 l -38.2399,29.3201 -37.6761,24.5336 c -0.8457,0.562 -1.0674,1.686 -0.4834,2.4999 0.5639,0.8139 1.7318,1.0464 2.5776,0.4844 l 37.797,-24.6111 38.3608,-29.4169 c 0.8055,-0.6203 0.9262,-1.7442 0.3021,-2.5193 -0.3826,-0.4458 -0.9264,-0.6783 -1.47,-0.6783"
       style="fill:#5ea4ab;fill-opacity:1;fill-rule:nonzero;stroke:none;stroke-width:0.197542" />
    <path
       id="path298"
       d="m 4054.2843,4163.1814 c -0.2014,0 -0.4229,0.038 -0.6242,0.097 l -20.4592,7.0539 c -0.9666,0.3294 -1.47,1.3564 -1.1276,2.3061 0.3624,0.9301 1.4297,1.4147 2.3963,1.0852 l 20.4389,-7.0538 c 0.9868,-0.3295 1.4901,-1.3566 1.1277,-2.3061 -0.2618,-0.7171 -0.9867,-1.1822 -1.7519,-1.1822"
       style="fill:#5ea4ab;fill-opacity:1;fill-rule:nonzero;stroke:none;stroke-width:0.197542" />
    <path
       id="path299"
       d="m 4227.3812,4430.454 c -0.7854,0 -1.5304,0.4844 -1.7721,1.2402 l -8.5984,26.0645 -16.6533,18.0222 c -0.7047,0.7365 -0.6242,1.8605 0.141,2.5387 0.7652,0.6396 1.9533,0.6007 2.6379,-0.155 l 17.3178,-18.9525 8.7193,-26.4133 c 0.302,-0.9496 -0.2417,-1.9572 -1.2285,-2.2673 -0.1811,-0.059 -0.3624,-0.078 -0.5637,-0.078"
       style="fill:#5ea4ab;fill-opacity:1;fill-rule:nonzero;stroke:none;stroke-width:0.197542" />
    <path
       id="path300"
       d="m 4227.3812,4430.454 c -0.3625,0 -0.745,0.097 -1.0673,0.3293 l -48.2682,32.634 c -0.8457,0.562 -1.0472,1.686 -0.4631,2.4998 0.604,0.814 1.7721,1.0078 2.6178,0.4264 l 48.2682,-32.6339 c 0.8457,-0.562 1.0471,-1.6859 0.4429,-2.4999 -0.3623,-0.5038 -0.9464,-0.7557 -1.5303,-0.7557"
       style="fill:#5ea4ab;fill-opacity:1;fill-rule:nonzero;stroke:none;stroke-width:0.197542" />
    <path
       id="path301"
       d="m 4079.6165,4244.4755 -33.3668,17.9061 -30.4873,12.3248 -27.6682,7.0345 -36.3673,-18.8556 -10.6121,-2.1703 c -1.027,-0.1938 -2.0136,0.4262 -2.2151,1.3953 -0.2215,0.9689 0.4229,1.9184 1.4297,2.1316 l 10.3705,2.1123 36.911,19.2432 29.3596,-7.4997 30.9102,-12.4799 31.2324,-16.7627 31.8566,27.3047 28.3125,34.6494 22.0297,38.9514 14.2369,40.5404 5.3563,39.0096 -3.6447,35.3856 c -0.1009,0.9885 0.6443,1.8798 1.6714,1.9768 1.047,0.059 1.9533,-0.6202 2.0539,-1.6086 l 3.685,-35.8119 -5.4973,-39.7848 -14.4583,-41.1411 -22.3118,-39.4941 -28.7151,-35.1143 -34.0717,-29.2427"
       style="fill:#5ea4ab;fill-opacity:1;fill-rule:nonzero;stroke:none;stroke-width:0.197542" />
    <path
       id="path302"
       d="m 4179.113,4463.0879 c -0.7249,0 -1.4096,0.407 -1.7117,1.1045 l -12.505,28.8357 -20.3584,20.5609 c -0.7048,0.717 -0.6846,1.8604 0.081,2.5387 0.7451,0.6781 1.9129,0.6588 2.6379,-0.059 l 20.9625,-21.3554 12.6259,-29.1457 c 0.4027,-0.9107 -0.061,-1.9572 -1.0069,-2.3448 -0.2416,-0.097 -0.4832,-0.1357 -0.7249,-0.1357"
       style="fill:#5ea4ab;fill-opacity:1;fill-rule:nonzero;stroke:none;stroke-width:0.197542" />
    <path
       id="path303"
       d="m 4007.5264,4527.5224 38.3607,-3.9727 37.6159,-10.4839 -17.64,28.9132 -27.1446,23.9329 -48.1876,13.662 -43.9187,4.7866 -34.4743,-3.6627 33.2057,-23.2545 29.1583,-33.6998 z m -242.1666,-41.1993 0.2013,-0.038 45.8317,-8.8755 12.6662,38.4669 20.7611,31.6456 27.8493,22.7313 29.3798,11.6467 -36.5687,13.3132 -42.1264,3.4107 -36.8707,-14.3402 -30.1248,-24.2236 -22.6137,-33.8741 -13.8341,-40.8893 z m 210.3301,-252.1377 c -0.2417,0 -0.4833,0.059 -0.725,0.1551 l -33.4272,13.3519 -0.4632,2.6549 1.6915,0.5232 37.0519,8.1004 35.5618,18.8555 31.6149,28.5257 25.4934,36.1221 17.4789,41.3544 8.3366,43.6023 -1.49,42.8465 -10.8539,38.37 -40.7974,11.3754 -37.6157,3.8951 -34.6153,-3.9727 -30.3062,35.0176 -35.743,24.9599 -32.501,-12.8869 -26.923,-22.0725 -20.1168,-30.8122 -13.3911,-40.9088 -48.9326,9.4763 -50.3021,-1.1433 15.7471,46.3541 23.2783,34.7073 31.0712,24.8825 37.9782,14.7666 43.7777,-3.6238 40.5356,-14.7667 0.282,0.1163 0.2617,-0.1744 38.9649,4.1471 0.2215,-0.019 44.4423,-4.8836 49.3355,-13.9526 28.3325,-25.0957 19.8751,-32.5757 44.1603,-18.8167 47.0802,-26.2003 c 0.886,-0.5037 1.188,-1.6084 0.6845,-2.461 -0.5235,-0.8527 -1.6713,-1.1434 -2.5574,-0.6589 l -46.8988,26.1227 -40.9585,17.4602 10.2095,-36.2965 1.5102,-43.4472 -8.5582,-44.5131 -17.801,-42.0328 -25.9969,-36.7615 -32.2995,-29.0682 -36.4882,-19.2625 -31.7961,-6.9571 27.2855,-10.9103 c 0.9666,-0.3875 1.4096,-1.434 1.0069,-2.3448 -0.2819,-0.6976 -0.9867,-1.1239 -1.7116,-1.1239"
       style="fill:#5ea4ab;fill-opacity:1;fill-rule:nonzero;stroke:none;stroke-width:0.197542" />
    <path
       id="path304"
       d="m 3975.6899,4234.1854 c -0.04,0 -0.1009,0 -0.1409,0.019 l -31.615,2.2286 -0.7854,2.7518 -15.9082,26.6846 -27.5674,22.4794 -9.4442,51.7801 -36.4881,19.5921 -43.8582,12.1311 -47.805,3.3913 -48.0668,-5.5617 -44.8651,-14.1465 -38.9448,-21.6849 -30.0241,-27.6924 -19.3919,-31.9363 c -0.5035,-0.8526 -1.6512,-1.1433 -2.5574,-0.6395 -0.886,0.5039 -1.1881,1.6085 -0.6645,2.4612 l 19.8348,32.537 30.7291,28.2737 39.6696,22.053 45.4289,14.2823 48.7717,5.6392 48.7514,-3.4688 44.6234,-12.4024 38.24,-20.5029 9.5045,-52.2064 27.2051,-22.3245 16.5122,-28.0992 28.9972,-2.0348 c 1.0269,-0.078 1.7922,-0.9302 1.7117,-1.9378 -0.061,-0.9302 -0.8861,-1.6667 -1.8526,-1.6667"
       style="fill:#5ea4ab;fill-opacity:1;fill-rule:nonzero;stroke:none;stroke-width:0.197542" />
    <path
       id="path305"
       d="m 3579.1738,4273.3305 c -1.0068,0 -1.8324,0.7752 -1.8525,1.7441 l -2.0943,59.9581 6.9473,53.2142 19.7945,35.2695 30.1651,28.8938 c 0.7249,0.6975 1.913,0.717 2.638,0 0.7249,-0.6977 0.7249,-1.8411 0,-2.5387 l -29.9637,-28.7195 -19.1704,-34.3004 -6.6855,-51.9739 2.0943,-59.6867 c 0.04,-0.9884 -0.7653,-1.8217 -1.8123,-1.8605 -0.02,0 -0.04,0 -0.061,0"
       style="fill:#5ea4ab;fill-opacity:1;fill-rule:nonzero;stroke:none;stroke-width:0.197542" />
    <path
       id="path306"
       d="m 4522.5279,3668.2272 35.0182,-24.7079 30.0644,-34.8432 20.6806,-41.1024 10.008,-44.2419 -1.4901,-45.0169 -11.1358,-36.9747 28.4535,17.8478 25.0102,29.3395 10.0079,38.6414 -1.5304,40.8892 -13.1696,40.2305 -23.8622,36.8197 -33.0649,30.7929 -38.703,22.0144 -16.613,-18.255 z m -64.3776,-309.557 -0.2014,0.038 -54.1481,9.4956 -59.5249,20.1733 -63.5118,30.6186 -66.4317,40.618 -68.1634,49.9973 -68.6265,58.524 -67.8413,66.0624 -65.7068,72.3604 -62.3238,77.3408 -57.7325,80.8097 -52.0137,82.7475 -45.2879,83.077 -37.6963,81.8173 -29.4403,78.9686 -20.6604,74.6859 -11.619,69.0081 -2.3761,62.1284 6.7458,54.2219 c 0.1208,0.9883 1.0673,1.7054 2.0742,1.5698 1.027,-0.1164 1.7519,-1.0271 1.631,-1.9962 l -6.7257,-53.9506 2.3761,-61.6246 11.5385,-68.6203 20.58,-74.3372 29.3596,-78.736 37.5754,-81.5655 45.1872,-82.8832 51.8728,-82.5536 57.6117,-80.6546 62.203,-77.1665 65.5657,-72.2054 67.6602,-65.8879 68.4452,-58.3691 67.9219,-49.8229 66.1296,-40.4435 63.1494,-30.4442 59.0011,-19.999 53.685,-9.3987 47.7849,1.1434 40.878,11.356 31.0309,27.5761 20.2579,31.8781 -35.8639,-9.67 -49.1543,-0.814 16.9151,44.7845 5.8195,44.9394 -4.8128,44.6682 -14.9414,41.2769 -24.1443,35.0174 -31.7357,26.5878 c -0.7652,0.6589 -0.8457,1.7829 -0.1813,2.5386 0.6848,0.7558 1.8728,0.8139 2.638,0.1744 l 32.2593,-27.1109 24.6073,-35.8121 15.2034,-42.0907 4.8531,-45.2883 -0.02,-0.1939 -5.9605,-45.7533 -15.143,-40.0366 43.4958,0.6977 38.7434,10.5226 12.1828,40.4437 1.4097,43.8929 -9.8671,43.6023 -20.3383,40.2886 -29.5409,34.1648 -39.0254,27.4598 24.2248,14.0691 18.0226,19.9601 41.9452,-23.9134 33.6487,-31.4324 24.3053,-37.6143 13.4111,-41.1607 1.5506,-41.6451 -0.061,-0.2519 -10.5317,-39.9591 -25.8759,-30.2503 -32.3398,-20.2508 -0.1009,-0.3294 -0.3021,-0.078 -22.8352,-35.7926 -31.8566,-28.3125 -42.4486,-11.7436 -48.389,-1.1433"
       style="fill:#5ea4ab;fill-opacity:1;fill-rule:nonzero;stroke:none;stroke-width:0.197542" />
    <path
       id="path307"
       d="m 4492.7253,3660.2432 -31.051,0.3294 c -1.0271,0.02 -1.8527,0.8333 -1.8326,1.8216 0,0.9883 0.7854,1.6859 1.8727,1.7829 l 30.5679,-0.3294 26.4196,6.2593 c 1.0069,0.2326 2.0137,-0.3489 2.2755,-1.2984 0.2417,-0.9689 -0.3825,-1.9379 -1.3693,-2.1899 l -26.8828,-6.3755"
       style="fill:#5ea4ab;fill-opacity:1;fill-rule:nonzero;stroke:none;stroke-width:0.197542" />
    <path
       id="path308"
       d="m 4519.1449,3666.58 c -0.2214,0 -0.443,0.019 -0.6645,0.1163 l -41.3612,15.5224 -42.7306,4.2245 -22.8754,-5.3096 c -0.9868,-0.2133 -1.9936,0.3681 -2.2554,1.337 -0.2416,0.969 0.3826,1.9379 1.3895,2.1705 l 23.4797,5.4454 44.1199,-4.4377 41.5827,-15.5999 c 0.9666,-0.3683 1.4499,-1.4148 1.0673,-2.3255 -0.282,-0.717 -0.9868,-1.1434 -1.752,-1.1434"
       style="fill:#5ea4ab;fill-opacity:1;fill-rule:nonzero;stroke:none;stroke-width:0.197542" />
    <path
       id="path309"
       d="m 4452.8945,3676.4051 c -0.081,0 -0.1409,0 -0.2215,0 l -41.8042,4.6897 c -1.027,0.1162 -1.752,1.0076 -1.6513,1.996 0.1209,0.9883 1.027,1.686 2.0741,1.589 l 41.8244,-4.6896 c 1.0269,-0.1163 1.7519,-1.0077 1.6311,-1.996 -0.1009,-0.9109 -0.9264,-1.5891 -1.8526,-1.5891"
       style="fill:#5ea4ab;fill-opacity:1;fill-rule:nonzero;stroke:none;stroke-width:0.197542" />
    <path
       id="path310"
       d="m 4452.8945,3676.4051 h -0.02 l -28.4937,0.3488 c -1.0269,0.02 -1.8526,0.8333 -1.8324,1.8217 0,1.0076 0.7652,1.8409 1.8928,1.7827 l 28.4737,-0.3487 c 1.0269,-0.02 1.8526,-0.8333 1.8526,-1.8411 -0.02,-0.9689 -0.8458,-1.7634 -1.8728,-1.7634"
       style="fill:#5ea4ab;fill-opacity:1;fill-rule:nonzero;stroke:none;stroke-width:0.197542" />
    <path
       id="path311"
       d="m 4461.6944,3660.5726 c -0.2417,0 -0.5035,0.059 -0.7653,0.155 l -37.2937,16.2007 c -0.9262,0.4069 -1.3491,1.4728 -0.9262,2.3642 0.4229,0.9108 1.5305,1.3178 2.4769,0.9108 l 37.2936,-16.1813 c 0.9263,-0.4263 1.3492,-1.4921 0.9263,-2.3836 -0.302,-0.6782 -0.9868,-1.0658 -1.7116,-1.0658"
       style="fill:#5ea4ab;fill-opacity:1;fill-rule:nonzero;stroke:none;stroke-width:0.197542" />
    <path
       id="path312"
       d="m 4461.6944,3660.5726 c -0.1209,0 -0.2417,0.02 -0.3827,0.038 l -34.4744,7.0926 -37.8372,13.8171 c -0.9666,0.3488 -1.4498,1.3953 -1.0673,2.3255 0.3624,0.9301 1.4297,1.3758 2.3963,1.0464 l 37.5554,-13.7589 34.2125,-6.9959 c 1.007,-0.213 1.6513,-1.1627 1.4297,-2.1316 -0.1811,-0.8526 -0.9665,-1.434 -1.8323,-1.434"
       style="fill:#5ea4ab;fill-opacity:1;fill-rule:nonzero;stroke:none;stroke-width:0.197542" />
    <path
       id="path313"
       d="m 4407.6066,3452.5023 -62.7668,30.7348 -65.6463,40.5792 26.6613,40.8505 18.1031,40.6955 9.2427,39.1453 0.061,35.1919 -9.1422,28.5643 -17.6802,20.5029 c -0.6645,0.7751 -0.5639,1.8991 0.2417,2.5385 0.7853,0.6396 1.9733,0.5233 2.6378,-0.2325 l 18.2642,-21.4137 9.4242,-29.6882 -0.121,-36.064 -9.4039,-39.649 -18.3246,-41.2382 -24.8488,-38.0987 62.384,-38.5831 59.1825,-28.9521 19.714,40.0948 11.4177,43.7186 1.7317,43.2147 -7.9742,39.591 -17.197,33.1377 -25.2315,24.8048 c -0.7249,0.7171 -0.7048,1.8411 0.02,2.5387 0.7451,0.6977 1.9331,0.6783 2.6581,-0.019 l 25.7753,-25.4637 17.5795,-34.068 8.1353,-40.2304 -1.8324,-44.2031 -11.5788,-44.2418 -21.4861,-43.7574"
       style="fill:#5ea4ab;fill-opacity:1;fill-rule:nonzero;stroke:none;stroke-width:0.197542" />
    <path
       id="path314"
       d="m 3978.2473,4217.1126 c -0.3021,0 -0.6042,0.078 -0.8861,0.2326 l -32.2794,17.1114 c -0.886,0.4846 -1.2284,1.5698 -0.7251,2.4418 0.5035,0.872 1.6312,1.2015 2.5374,0.6976 l 32.2593,-17.1114 c 0.9061,-0.4652 1.2283,-1.5697 0.7451,-2.4418 -0.3424,-0.5813 -0.9868,-0.9302 -1.6512,-0.9302"
       style="fill:#5ea4ab;fill-opacity:1;fill-rule:nonzero;stroke:none;stroke-width:0.197542" />
    <path
       id="path315"
       d="m 3978.2473,4217.1126 c -0.2417,0 -0.5035,0.059 -0.7451,0.155 l -26.8627,11.5692 c -0.9465,0.3875 -1.3692,1.4534 -0.9465,2.3643 0.4229,0.9107 1.5304,1.337 2.4769,0.9107 l 26.8425,-11.5497 c 0.9465,-0.4071 1.3693,-1.4728 0.9465,-2.3837 -0.3021,-0.6588 -0.9867,-1.0658 -1.7116,-1.0658"
       style="fill:#5ea4ab;fill-opacity:1;fill-rule:nonzero;stroke:none;stroke-width:0.197542" />
    <path
       id="path316"
       d="m 4327.8645,3342.7602 -0.3022,0.038 -37.9379,4.7866 c -1.027,0.1163 -1.7519,1.0271 -1.611,2.0154 0.1409,0.969 1.0674,1.7053 2.0943,1.5503 l 37.656,-4.7478 38.4212,6.957 36.8707,18.0999 32.7627,28.2348 26.3795,36.316 18.0225,41.9938 8.5381,44.6682 -1.6916,44.2612 -12.5251,43.8348 43.677,-8.7398 36.0249,-0.1356 30.9303,7.6547 25.4933,15.2316 19.7745,22.4407 13.834,29.3395 7.491,34.7269 -33.8098,24.7079 -41.462,17.6736 c -0.9465,0.4068 -1.3693,1.4727 -0.9465,2.3641 0.4229,0.9108 1.5103,1.3372 2.4568,0.9302 l 42.0457,-17.9641 35.8438,-26.2196 -8.1354,-37.5367 -14.2971,-30.1535 -20.58,-23.2158 -26.5001,-15.7356 -31.9171,-7.8484 -36.8102,0.1744 -37.8776,7.5965 11.015,-38.777 1.7117,-44.8619 -8.7395,-45.6177 -18.3851,-42.6916 -26.9028,-36.9554 -33.5079,-28.7775 -37.8373,-18.5068 -39.2668,-7.112"
       style="fill:#5ea4ab;fill-opacity:1;fill-rule:nonzero;stroke:none;stroke-width:0.197542" />
    <path
       id="path317"
       d="m 4404.2638,3681.1723 c -0.886,0 -1.6713,0.6201 -1.8324,1.4921 -0.1813,0.9689 0.4833,1.8992 1.4901,2.0929 l 29.6617,5.213 18.7273,10.6777 15.445,16.782 46.7983,-2.4805 42.8512,-12.538 11.2767,23.2545 6.7459,30.0178 c 0.2215,0.9689 1.2082,1.5891 2.2151,1.3759 1.0069,-0.1938 1.6512,-1.1627 1.4297,-2.1317 l -6.9069,-30.5991 -12.7468,-26.2777 -45.7309,13.4102 -44.3213,2.2867 -14.9014,-16.0457 -19.8751,-11.2009 -29.9838,-5.2905 c -0.1209,-0.019 -0.2215,-0.038 -0.3424,-0.038"
       style="fill:#5ea4ab;fill-opacity:1;fill-rule:nonzero;stroke:none;stroke-width:0.197542" />
    <path
       id="path318"
       d="m 4397.82,3682.2381 c -0.6443,0 -1.2686,0.3295 -1.6109,0.8914 -0.5236,0.8527 -0.2417,1.9573 0.6645,2.4611 l 12.8675,7.3058 c 0.886,0.5233 2.0339,0.2326 2.5574,-0.6201 0.5235,-0.8526 0.2417,-1.9573 -0.6444,-2.4611 l -12.8876,-7.3252 c -0.302,-0.1743 -0.6242,-0.2519 -0.9465,-0.2519"
       style="fill:#5ea4ab;fill-opacity:1;fill-rule:nonzero;stroke:none;stroke-width:0.197542" />
    <path
       id="path319"
       d="m 4396.3097,3682.5482 c -0.6846,0 -1.3491,0.3682 -1.6713,0.9882 -0.4631,0.8915 -0.1009,1.9767 0.8256,2.4225 l 14.398,6.9956 c 0.906,0.4458 2.0337,0.097 2.4969,-0.7944 0.4631,-0.872 0.1009,-1.9573 -0.8256,-2.4031 l -14.3778,-7.0151 c -0.2819,-0.1162 -0.5639,-0.1937 -0.8458,-0.1937"
       style="fill:#5ea4ab;fill-opacity:1;fill-rule:nonzero;stroke:none;stroke-width:0.197542" />
    <path
       id="path320"
       d="m 4377.5019,3688.8463 c -0.5035,0 -1.0068,0.1938 -1.3694,0.5813 -0.7048,0.717 -0.6644,1.8605 0.081,2.5387 l 20.0162,17.9641 38.4011,19.0882 c 0.9061,0.465 2.0338,0.1162 2.517,-0.7752 0.4632,-0.872 0.1209,-1.9573 -0.8055,-2.4224 l -38.1595,-18.9717 -19.4119,-17.5185 c -0.3624,-0.3102 -0.8054,-0.4845 -1.2686,-0.4845"
       style="fill:#5ea4ab;fill-opacity:1;fill-rule:nonzero;stroke:none;stroke-width:0.197542" />
    <path
       id="path321"
       d="m 4410.6875,3689.5632 c -0.443,0 -0.8861,0.1551 -1.2283,0.4458 -0.7854,0.6782 -0.8458,1.8022 -0.1611,2.5387 l 14.3373,15.4449 10.1693,20.2121 c 0.443,0.8914 1.5505,1.2789 2.4969,0.8333 0.9264,-0.4264 1.309,-1.5117 0.866,-2.4031 l -10.5719,-20.8515 -14.4986,-15.6193 c -0.3826,-0.4071 -0.886,-0.6009 -1.4096,-0.6009"
       style="fill:#5ea4ab;fill-opacity:1;fill-rule:nonzero;stroke:none;stroke-width:0.197542" />
    <path
       id="path322"
       d="m 4410.6875,3689.5632 c -0.8659,0 -1.6512,0.5814 -1.8325,1.4535 -0.1812,0.969 0.4834,1.9184 1.4903,2.1123 l 43.0526,7.926 0.2618,-0.019 44.5429,-3.4882 c 1.0269,-0.097 1.7921,-0.9496 1.7116,-1.9379 -0.1008,-1.0077 -0.9867,-1.7441 -2.0136,-1.6472 l -44.3014,3.4688 -42.5491,-7.8483 c -0.121,-0.019 -0.2417,-0.019 -0.3626,-0.019"
       style="fill:#5ea4ab;fill-opacity:1;fill-rule:nonzero;stroke:none;stroke-width:0.197542" />
    <path
       id="path323"
       d="m 4420.4942,3340.5316 -0.2015,0.038 -53.846,9.3017 -59.122,19.8827 -63.0889,30.2309 -65.9283,40.1336 -67.6399,49.4353 -68.0828,57.9039 -67.2573,65.3453 -65.143,71.6241 -61.76,76.5462 -57.1888,79.9959 -51.47,81.9529 -44.8046,82.2824 -37.2734,81.0422 -29.0978,78.271 -20.3585,74.0271 -11.3976,68.446 -2.235,61.6439 6.9069,54.1831 15.7672,45.1721 30.89,29.8046 38.2199,20.1926 23.8019,35.2113 31.8766,25.5026 0.4633,0.097 42.8512,8.856 44.3617,-2.9067 35.9645,14.0303 42.3681,4.3989 39.7101,-15.5806 34.3333,-26.1807 27.1446,-34.9981 17.9622,-41.5288 7.6922,-44.9201 -3.2622,-45.8696 -13.9951,-43.7768 -25.3121,-3.4687 -19.9356,-8.6818 -21.0833,-36.2771 c -0.5035,-0.8721 -1.6512,-1.1627 -2.5373,-0.6976 -0.9062,0.4844 -1.2284,1.589 -0.7249,2.4611 l 21.6875,37.3042 21.8083,9.418 23.2179,3.1781 13.2299,41.3932 3.1412,44.8426 -7.5915,44.2999 -17.6602,40.7343 -26.6209,34.2423 -33.6085,25.5414 -38.1393,14.9022 -41.1599,-4.2827 -36.0249,-14.1271 -44.6838,2.9261 -41.9049,-8.6623 -30.9706,-24.7662 -23.7817,-35.3275 -38.8039,-20.5221 -29.6616,-28.7 -15.4249,-44.203 -6.7861,-53.3693 2.2351,-61.1402 11.3171,-68.0583 20.298,-73.6976 28.977,-77.9997 37.1727,-80.829 44.6837,-82.0693 51.3694,-81.7592 57.0679,-79.8407 61.6191,-76.3719 64.9817,-71.4496 67.0963,-65.2098 67.8815,-57.71 67.3982,-49.2803 65.6464,-39.9398 62.7063,-30.0759 58.6187,-19.7083 53.3829,-9.2049 47.3419,1.2015 37.3137,17.7897 31.6351,27.9249 23.7213,36.0639 14.0153,41.8389 3.4434,44.6875 -7.5514,44.4357 -17.8614,41.1024 -27.0439,34.9206 -34.2528,26.3747 -44.5631,18.1966 29.8832,6.9957 20.2175,11.6274 c 0.886,0.5038 2.0339,0.2325 2.5775,-0.6202 0.5235,-0.8527 0.2417,-1.9573 -0.6443,-2.4804 l -21.0028,-11.9762 -19.1905,-4.4764 34.857,-14.3017 34.9576,-27.014 27.5674,-35.6376 18.1636,-41.9357 7.6319,-45.0559 -3.5643,-45.7339 -14.3575,-42.6721 -24.3053,-36.8392 -32.4407,-28.545 -38.6829,-18.2548 -48.1474,-1.2209"
       style="fill:#5ea4ab;fill-opacity:1;fill-rule:nonzero;stroke:none;stroke-width:0.197542" />
    <path
       id="path324"
       d="m 4490.6714,3387.1182 -0.1813,0.019 -53.6044,9.5925 -58.9206,20.1733 -62.8877,30.5217 -65.7873,40.4436 -67.5191,49.7454 -68.0225,58.1751 -67.2371,65.6555 -65.1631,71.876 -61.8002,76.7982 -57.2895,80.2282 -51.631,82.1275 -44.9859,82.4374 -37.4748,81.1584 -29.3396,78.3486 -20.6402,74.0465 -11.6593,68.4265 -2.5373,61.5859 6.605,54.0862 15.6464,45.579 45.5899,10.6196 46.2746,-0.6201 21.5867,32.5176 29.9437,24.301 44.7845,-14.8829 39.5087,-25.1731 32.6016,-33.9904 23.3387,-40.5405 12.6258,-44.2224 0.9666,-44.4744 c 0.02,-0.9883 -0.8055,-1.8021 -1.8324,-1.841 -0.9667,-0.097 -1.8929,0.7752 -1.9131,1.7636 l -0.9666,44.2417 -12.4244,43.3698 -22.9561,39.7654 -32.0379,33.3121 -38.7836,24.6692 -42.1264,13.9333 -28.1112,-22.7894 -22.1708,-33.5835 -47.8854,0.6396 -43.1133,-10.0383 -14.9415,-43.5054 -6.4841,-53.2724 2.5372,-61.082 11.5989,-68.039 20.5397,-73.7363 29.2387,-78.0773 37.3742,-80.9259 44.8851,-82.2436 51.5103,-81.9337 57.1485,-80.0538 61.6995,-76.6432 65.002,-71.721 67.076,-65.4811 67.8212,-58.0201 67.2775,-49.571 65.5054,-40.2692 62.5049,-30.3471 58.4172,-20.0184 53.1212,-9.4568 47.2613,0.9495 40.5559,11.1817 33.2258,20.9291 21.6471,34.7461 11.0753,40.1529 -0.2617,42.614 -11.76,42.1878 -22.352,38.8544 -31.5344,32.7696 -38.4413,24.4754 -45.59,15.348 17.64,19.3013 9.9073,20.1346 -42.952,0.7752 -46.3955,-10.0963 6.5848,27.6534 1.4498,28.5644 -2.8997,32.1108 -7.2291,35.095 -11.4176,37.4786 -15.4048,39.2615 -19.1502,40.366 -22.5533,40.8118 -25.5942,40.618 -28.2319,39.7459 -30.4268,38.2731 -32.1183,36.1415 -33.3065,33.4285 -33.9307,30.1728 -34.0516,26.3939 -33.5681,22.1887 -32.5212,17.5572 -30.9505,12.6157 -28.7756,7.422 -25.8961,2.0542 -22.8957,-3.2169 -19.6334,-8.643 c -0.9464,-0.4069 -2.054,-0.019 -2.4768,0.8916 -0.4432,0.8914 -0.02,1.9764 0.9262,2.3835 l 20.3786,8.8755 23.5803,3.3332 26.6613,-2.151 29.3596,-7.5772 31.3531,-12.7706 32.8635,-17.7317 33.8301,-22.3438 34.2529,-26.5683 34.1119,-30.3085 33.4676,-33.6029 32.2391,-36.2771 30.5477,-38.4281 28.3527,-39.9203 25.715,-40.773 22.6539,-41.0056 19.2309,-40.5793 15.5053,-39.494 11.4982,-37.7693 7.3097,-35.4439 2.94,-32.5564 -1.4901,-29.1069 -5.3162,-22.4018 41.0391,8.9335 49.1743,-0.8914 -12.7668,-25.8125 -14.1361,-15.4838 40.9785,-13.8558 39.1665,-24.9986 32.0982,-33.4479 22.7547,-39.6296 11.9412,-43.0791 0.2416,-43.3311 -11.458,-41.3155 -22.211,-35.6764 -34.6959,-21.7625 -41.5423,-11.3754 -47.8856,-0.9689"
       style="fill:#5ea4ab;fill-opacity:1;fill-rule:nonzero;stroke:none;stroke-width:0.197542" />
    <path
       id="path325"
       d="m 3870.0517,4492.6212 -11.8607,-36.8198 -4.5913,-43.893 2.7185,-50.4236 10.1289,-56.1211 17.4184,-60.7719 24.4664,-64.3182 31.0712,-66.6632 37.1124,-67.7289 42.4888,-67.5157 47.0601,-66.0237 50.7047,-63.2912 53.4031,-59.3186 55.0744,-54.3188 55.6988,-48.2726 55.2759,-41.4125 53.8258,-33.8354 51.4297,-25.7351 48.1071,-17.2664 43.7375,-8.5655 38.9448,0.038 33.4474,8.4879 27.507,16.6658 21.3249,24.4948 14.5188,31.1417 -24.406,33.6223 -34.0515,28.2543 -40.7975,20.3671 -46.7578,11.4141 6.766,29.5139 1.3894,31.9751 -3.4635,35.9283 -8.2763,39.2615 -12.9279,41.9164 -17.358,43.893 -21.4861,45.1332 -25.2717,45.637 -28.655,45.424 -31.5544,44.4744 -33.9911,42.8465 -35.8438,40.5017 -37.1727,37.4981 -37.8775,33.8934 -37.9984,29.7077 -37.4547,25.0181 -36.3069,19.8633 -34.5348,14.3597 -32.1586,8.5848 -28.9771,2.5774 -25.6141,-3.3719 -21.9291,-9.4375 c -0.9465,-0.4263 -2.054,0 -2.4769,0.8914 -0.4228,0.9109 0,1.9767 0.9464,2.3835 l 22.6943,9.6895 26.2989,3.4688 0.2215,-0.019 29.5006,-2.655 32.7225,-8.7204 34.9577,-14.5342 36.6492,-20.0376 37.7164,-25.1924 38.1796,-29.8628 38.0588,-34.0485 37.3136,-37.6531 36.0049,-40.6374 34.0918,-43.0016 31.6753,-44.6487 28.7555,-45.579 25.3725,-45.8309 21.5868,-45.327 17.4587,-44.1256 13.0084,-42.207 8.3569,-39.6103 3.5038,-36.3546 -1.4498,-32.537 -6.021,-26.4327 43.8582,-10.736 41.5424,-20.7934 34.7161,-28.8744 22.6541,-31.1998 7.4305,34.9786 1.4096,44.8814 -5.2961,50.2298 -11.921,54.7259 -18.2641,58.272 -24.3456,60.927 -29.9638,62.5742 -35.1187,63.2524 -39.7099,62.9423 -43.7174,61.6634 -47.0197,59.4542 -49.6172,56.2955 -51.4499,52.2452 -52.4768,47.3426 -52.7185,41.6644 -52.0539,35.2887 -50.6041,28.235 -48.2481,20.6771 -45.0865,12.6931 -40.8578,4.3602 -36.2464,-3.992 -30.8297,-12.4025 -24.9294,-20.6965 z m -103.0206,-8.4685 -5.6786,-49.8618 2.7185,-57.1675 11.1961,-63.6593 19.5127,-68.9886 27.5876,-73.0581 35.1388,-75.713 42.1065,-76.9727 48.2479,-76.7206 53.4837,-74.9767 57.6721,-71.8178 60.7531,-67.2833 62.6459,-61.5083 63.3306,-54.5707 62.8474,-46.7029 61.1557,-38.0406 58.377,-28.797 54.5509,-19.1463 49.5972,-9.2629 44.1201,0.5037 37.8372,10.077 31.1115,19.3207 24.0636,28.1187 16.6532,36.2384 -2.3761,38.5638 -12.6661,33.8354 -13.4314,-28.6807 -22.1304,-25.2505 -28.5139,-17.1891 -34.4341,-8.6623 -39.569,-0.059 -0.1813,0.038 -44.2207,8.6816 -48.5702,17.4216 -51.7922,25.9289 -54.128,34.0098 -55.4973,41.587 -55.9001,48.4469 -55.2356,54.4545 -53.5441,59.4929 -50.8255,63.4462 -47.1808,66.1787 -42.5896,67.7096 -37.2331,67.9227 -31.172,66.8762 -24.5468,64.5702 -17.499,61.0821 -10.2095,56.5086 -2.7386,50.9275 4.6718,44.5132 11.5385,35.9476 -41.1196,20.7547 -44.6034,10.9491 z m 764.9007,-1017.8526 -50.2616,9.418 -55.0343,19.3013 -58.7595,28.9714 -61.4376,38.215 -63.0689,46.8773 -63.532,54.7452 -62.807,61.6633 -60.8939,67.4383 -57.8131,71.9922 -53.6046,75.151 -48.3488,76.8952 -42.227,77.1664 -35.2397,75.9456 -27.6883,73.31 -19.5932,69.2986 -11.2566,64.0469 -2.7385,57.6713 5.7793,50.6757 14.4784,43.4084 48.6106,-11.9954 41.18,-20.7546 18.2842,28.2542 25.876,21.3361 31.8566,12.7512 36.9311,4.0696 0.2013,-0.019 41.4015,-4.4377 45.6303,-12.8482 48.6508,-20.8321 50.9263,-28.4288 52.3157,-35.4438 52.8997,-41.8389 52.6581,-47.4973 51.5907,-52.4004 49.7583,-56.4311 47.1406,-59.5898 43.8178,-61.8379 39.8107,-63.1166 35.2196,-63.427 30.0643,-62.7679 24.4261,-61.1595 18.3649,-58.5628 11.9814,-55.0551 5.3363,-50.6369 -1.4499,-45.424 -8.2159,-38.9126 14.2369,-38.2731 2.4567,-39.7073 -17.3782,-37.6724 -24.849,-28.8938 -32.1183,-19.8439 -38.824,-10.2901 -44.7443,-0.5039"
       style="fill:#5ea4ab;fill-opacity:1;fill-rule:nonzero;stroke:none;stroke-width:0.197542" />
    <path
       id="path326"
       d="m 3931.0866,4424.9892 c -0.5839,0 -1.1679,0.2712 -1.5304,0.7557 l -26.621,36.3546 -35.8235,29.9016 c -0.7854,0.6588 -0.866,1.8022 -0.1813,2.5386 0.6645,0.7557 1.8526,0.8333 2.6379,0.1937 l 36.3069,-30.3665 26.7418,-36.5485 c 0.584,-0.8138 0.3826,-1.9379 -0.4632,-2.4999 -0.3222,-0.2325 -0.7047,-0.3293 -1.0672,-0.3293"
       style="fill:#5ea4ab;fill-opacity:1;fill-rule:nonzero;stroke:none;stroke-width:0.197542" />
    <path
       id="path327"
       d="m 3932.7983,4426.0549 -9.7866,-31.3162 -3.6649,-37.2266 2.4769,-42.7109 8.7192,-47.4587 14.8409,-51.3344 20.7209,-54.2607 26.2384,-56.2179 31.333,-57.09 35.8236,-56.9156 39.6496,-55.656 42.7304,-53.3692 44.9861,-50.0942 46.4355,-45.889 46.9795,-40.8505 46.6774,-35.1144 45.5094,-28.7776 43.5159,-21.9949 40.7371,-14.8442 37.2935,-7.5578 32.9036,-0.2131 28.4535,6.8795 23.4595,13.817 18.244,20.4641 12.8072,26.7815 7.209,32.8277 1.3895,37.9437 -4.3295,42.5559 -10.0081,46.451 -15.4248,49.5516 -20.6404,51.819 -25.4731,53.2723 -29.8832,53.8924 -33.83,53.6213 -37.2534,52.5359 -40.0724,50.6174 -42.2673,47.9044 -43.8382,44.3969 -44.6837,40.1917 -44.8248,35.3082 -44.2207,29.8046 -42.932,23.7971 -40.8779,17.3053 -38.099,10.4839 -34.4341,3.4107 -30.4672,-3.6626 -25.8357,-10.7746 -20.8216,-17.7315 z m 594.5625,-792.4963 h -0.2417 l -33.5077,0.2713 -37.938,7.674 -41.2203,15.0185 -43.8784,22.15 -45.7912,28.9519 -46.8989,35.2889 -47.1808,41.0249 -46.5767,46.044 -45.147,50.2493 -42.8514,53.5243 -39.7704,55.8303 -35.9242,57.09 -31.4337,57.2838 -26.3592,56.431 -20.8217,54.5127 -14.9214,51.6445 -8.7797,47.8268 -2.497,43.1955 3.7455,37.8467 10.1087,32.3046 16.0894,25.4249 21.768,18.4099 26.8626,11.1041 31.1519,3.7401 35.1792,-3.4882 38.6629,-10.639 41.3008,-17.4797 43.234,-23.9521 44.4823,-29.9791 45.0463,-35.4633 44.845,-40.3466 43.979,-44.5518 42.4083,-48.0595 40.1933,-50.7531 37.354,-52.6911 33.9308,-53.7954 29.9838,-54.0669 25.5739,-53.4856 20.7209,-52.0514 15.5256,-49.823 10.0684,-46.7999 4.3697,-42.9821 -1.4096,-38.5057 -7.4306,-33.6997 -13.2904,-27.6149 -19.0493,-21.2198 -24.4665,-14.3209 -29.1985,-7.0732"
       style="fill:#5ea4ab;fill-opacity:1;fill-rule:nonzero;stroke:none;stroke-width:0.197542" />
    <path
       id="path328"
       d="m 3942.3028,4316.2159 c -0.9464,0 -1.7519,0.6976 -1.8525,1.6083 l -4.4504,39.7267 8.9007,28.7388 -15.5659,39.8622 c -0.3624,0.9301 0.1208,1.9766 1.0874,2.3254 0.9465,0.3489 2.0338,-0.1356 2.4164,-1.0659 l 16.0088,-40.9861 -9.0414,-29.2038 4.3495,-39.0096 c 0.1208,-0.9884 -0.6242,-1.8797 -1.6511,-1.9767 -0.081,-0.019 -0.141,-0.019 -0.2015,-0.019"
       style="fill:#5ea4ab;fill-opacity:1;fill-rule:nonzero;stroke:none;stroke-width:0.197542" />
    <path
       id="path329"
       d="m 3942.3028,4316.2159 c -0.1811,0 -0.3623,0.02 -0.5436,0.078 -0.9867,0.2713 -1.5505,1.279 -1.2485,2.2285 l 8.4172,27.1885 13.532,21.7237 17.8817,15.5419 c 0.765,0.6587 1.933,0.6006 2.6378,-0.1358 0.6847,-0.7363 0.6243,-1.8603 -0.141,-2.5386 l -17.66,-15.348 -12.9077,-20.8904 -8.1756,-26.5489 c -0.2417,-0.7945 -0.9868,-1.2984 -1.7923,-1.2984"
       style="fill:#5ea4ab;fill-opacity:1;fill-rule:nonzero;stroke:none;stroke-width:0.197542" />
    <path
       id="path330"
       d="m 3940.9738,4299.6857 c -0.302,0 -0.6041,0.078 -0.886,0.2326 -0.9061,0.4651 -1.2485,1.5697 -0.7452,2.4417 l 13.7737,23.9135 16.2707,14.2434 10.3907,41.5481 c 0.2417,0.969 1.2484,1.5504 2.2553,1.3372 0.9867,-0.2326 1.611,-1.2208 1.3693,-2.1705 l -10.6524,-42.6333 -16.8949,-14.786 -13.23,-23.1771 c -0.3422,-0.6007 -0.9866,-0.9496 -1.6512,-0.9496"
       style="fill:#5ea4ab;fill-opacity:1;fill-rule:nonzero;stroke:none;stroke-width:0.197542" />
    <path
       id="path331"
       d="m 3939.9871,4292.4381 c -0.5034,0 -1.0068,0.2132 -1.3693,0.6007 -0.7049,0.7365 -0.6444,1.8603 0.1208,2.5386 l 9.6859,8.5267 c 0.7652,0.6589 1.9533,0.6201 2.658,-0.1163 0.6847,-0.7364 0.6444,-1.8604 -0.1207,-2.5385 l -9.7061,-8.5267 c -0.3625,-0.3102 -0.8054,-0.4845 -1.2686,-0.4845"
       style="fill:#5ea4ab;fill-opacity:1;fill-rule:nonzero;stroke:none;stroke-width:0.197542" />
    <path
       id="path332"
       d="m 3939.9266,4291.6823 c -0.4832,0 -0.9665,0.1744 -1.3491,0.5426 -0.7249,0.6977 -0.7048,1.841 0.02,2.5386 l 9.7865,9.2825 c 0.7249,0.6976 1.9131,0.6976 2.638,0 0.7249,-0.717 0.7249,-1.8604 -0.02,-2.558 l -9.7663,-9.2825 c -0.3625,-0.3488 -0.8458,-0.5232 -1.309,-0.5232"
       style="fill:#5ea4ab;fill-opacity:1;fill-rule:nonzero;stroke:none;stroke-width:0.197542" />
    <path
       id="path333"
       d="m 4369.7895,3691.6756 c -0.141,0 -0.282,0.019 -0.423,0.038 -1.0067,0.2326 -1.631,1.2015 -1.3893,2.1704 l 3.0205,12.3831 1.6109,28.6031 -2.7588,32.1301 -7.0881,35.1144 -11.2767,37.4592 -15.304,39.2228 -19.0294,40.3079 -22.4729,40.7343 -25.5336,40.5404 -28.1916,39.649 -30.3866,38.1376 -32.1184,36.0058 -33.3064,33.3122 -33.9711,30.0178 -34.0918,26.2388 -33.6488,22.0144 -32.6217,17.4022 -31.031,12.4606 -28.8965,7.2863 -10.592,0.7558 c -1.0271,0.078 -1.7923,0.9496 -1.7117,1.938 0.081,0.9882 0.9868,1.8021 2.0138,1.6471 l 10.894,-0.8139 29.4804,-7.422 31.474,-12.6157 32.9641,-17.5765 33.8905,-22.1889 34.3133,-26.4132 34.1523,-30.1728 33.4674,-33.4478 32.2392,-36.1609 30.5277,-38.2925 28.2923,-39.8235 25.6544,-40.6955 22.5735,-40.928 19.13,-40.5212 15.3846,-39.4552 11.3573,-37.7693 7.1688,-35.4633 2.7788,-32.5562 -1.6513,-29.1651 -3.0607,-12.7126 c -0.2014,-0.8139 -0.9868,-1.3759 -1.8324,-1.3759"
       style="fill:#5ea4ab;fill-opacity:1;fill-rule:nonzero;stroke:none;stroke-width:0.197542" />
    <path
       id="path334"
       d="m 4368.3598,3901.8775 c -0.6243,0 -1.2285,0.3101 -1.5909,0.8526 -0.5437,0.8527 -0.2618,1.9573 0.6243,2.4806 l 37.4545,22.1693 42.0259,18.623 43.4756,13.6427 41.925,7.771 37.6762,1.2983 0.2013,-0.038 30.7491,-5.3678 21.4459,-11.4723 10.8739,-16.879 c 0.5436,-0.8527 0.282,-1.9571 -0.6041,-2.4804 -0.8659,-0.5232 -2.0137,-0.2519 -2.5574,0.5813 l -10.3705,16.0845 -20.3384,10.8715 -29.6616,5.0772 -36.9915,-1.2403 -41.4217,-7.674 -43.0527,-13.5069 -41.6231,-18.4681 -37.2532,-22.053 c -0.302,-0.1744 -0.6443,-0.2713 -0.9866,-0.2713"
       style="fill:#5ea4ab;fill-opacity:1;fill-rule:nonzero;stroke:none;stroke-width:0.197542" />
    <path
       id="path335"
       d="m 4368.3598,3901.8775 c -0.7049,0 -1.3896,0.3876 -1.6916,1.0659 l -18.8481,39.8041 -22.1507,40.1528 c -0.4833,0.8915 -0.1409,1.9768 0.7652,2.4418 0.9062,0.4651 2.0339,0.1357 2.5374,-0.7558 l 22.211,-40.2498 18.8884,-39.901 c 0.4228,-0.9108 0,-1.9766 -0.9264,-2.3835 -0.2617,-0.1163 -0.5235,-0.1745 -0.7852,-0.1745"
       style="fill:#5ea4ab;fill-opacity:1;fill-rule:nonzero;stroke:none;stroke-width:0.197542" />
    <path
       id="path336"
       d="m 4306.036,3809.2856 c -1.0069,0 -1.8526,0.7945 -1.8728,1.7829 l -0.302,20.0182 -21.0632,44.7263 -25.5739,46.4317 14.4381,18.4679 23.3791,21.278 31.1316,23.177 c 0.8055,0.6202 1.9935,0.4651 2.6178,-0.31 0.6242,-0.7945 0.4833,-1.9185 -0.3423,-2.5192 l -30.9706,-23.0802 -23.0367,-20.9291 -12.807,-16.4139 24.5266,-44.5131 21.4459,-45.889 0.3021,-20.4059 c 0.02,-0.9884 -0.8055,-1.8023 -1.8325,-1.8216 -0.02,0 -0.02,0 -0.04,0"
       style="fill:#5ea4ab;fill-opacity:1;fill-rule:nonzero;stroke:none;stroke-width:0.197542" />
    <path
       id="path337"
       d="m 4175.9314,4284.5315 c -0.3424,0 -0.6847,0.078 -1.0069,0.2713 -0.8659,0.5233 -1.1276,1.6279 -0.5839,2.4805 l 24.5871,37.498 16.7741,36.9942 -39.4483,26.4714 -40.3543,22.2275 1.9533,42.5558 -7.4105,37.3818 -16.2101,30.8704 -23.9629,22.6538 c -0.7452,0.6977 -0.7452,1.8216 -0.02,2.5387 0.7048,0.6975 1.8928,0.717 2.638,0.019 l 24.5267,-23.3126 16.6533,-31.8588 7.5311,-38.0406 -1.8727,-40.7729 38.5219,-21.2393 42.1063,-28.2349 -18.1231,-39.9397 -24.7282,-37.7305 c -0.3424,-0.5426 -0.9465,-0.8333 -1.5707,-0.8333"
       style="fill:#5ea4ab;fill-opacity:1;fill-rule:nonzero;stroke:none;stroke-width:0.197542" />
    <path
       id="path338"
       d="m 3966.0241,4287.167 21.1439,-1.6472 30.7691,28.3124 22.6743,34.2618 -23.3992,1.9572 -22.9561,-36.529 z m 22.5131,-5.3679 -31.031,2.403 33.971,31.7424 23.7414,37.8857 27.3258,-2.3256 14.9819,40.8894 5.437,42.8465 -29.9034,2.8293 -29.8026,-3.7595 -10.6122,45.9665 -19.8349,39.2421 -26.923,-11.0265 -22.8352,-19.2044 -16.9955,-26.704 -10.7935,-34.068 c -0.302,-0.9495 -1.3492,-1.4921 -2.3359,-1.2014 -0.9867,0.2906 -1.5303,1.2984 -1.2282,2.2479 l 11.0551,34.7075 17.6198,27.5373 23.7816,19.8826 30.4672,12.4799 21.6271,-42.9045 9.9073,-42.9629 26.8425,3.3913 0.2215,-0.02 33.9106,-3.2168 -6.0008,-47.0905 -14.8811,-40.5599 28.3728,-7.4414 32.7426,-13.4683 34.3133,-18.6424 35.3201,-23.4484 c 0.8459,-0.5619 1.0472,-1.6859 0.4633,-2.4999 -0.584,-0.8333 -1.7519,-1.0271 -2.5977,-0.4651 l -35.1792,23.3709 -33.971,18.468 -32.3197,13.2939 -28.7353,7.5383 -23.9832,-36.1414 -32.1385,-29.5721"
       style="fill:#5ea4ab;fill-opacity:1;fill-rule:nonzero;stroke:none;stroke-width:0.197542" />
    <path
       id="path339"
       d="m 3893.4709,4427.2371 c -0.3827,0 -0.7855,0.1356 -1.1277,0.3681 l -36.8909,27.1885 -43.5562,18.8944 c -0.9463,0.4069 -1.3693,1.4728 -0.9463,2.3642 0.443,0.9107 1.5303,1.3177 2.4768,0.9107 l 44.12,-19.1849 37.072,-27.3048 c 0.8055,-0.6007 0.9666,-1.744 0.3424,-2.5193 -0.3624,-0.465 -0.9263,-0.7169 -1.4901,-0.7169"
       style="fill:#5ea4ab;fill-opacity:1;fill-rule:nonzero;stroke:none;stroke-width:0.197542" />
    <path
       id="path340"
       d="m 3939.2017,4284.4152 c -0.9262,0 -1.7317,0.6589 -1.8526,1.5697 l -4.6314,36.4322 -16.8144,34.2617 -27.8493,30.0953 -37.1727,23.7197 -45.429,16.2781 5.3565,48.7378 c 0.1009,0.9883 1.027,1.7248 2.0539,1.6084 1.027,-0.1162 1.7722,-1.0076 1.6512,-1.996 l -5.034,-45.9665 43.2942,-15.5612 37.9179,-24.2623 28.4736,-30.8898 17.217,-35.3082 4.6919,-36.7034 c 0.1208,-0.9884 -0.6041,-1.8798 -1.6311,-1.996 -0.081,-0.019 -0.1611,-0.019 -0.2417,-0.019"
       style="fill:#5ea4ab;fill-opacity:1;fill-rule:nonzero;stroke:none;stroke-width:0.197542" />
    <path
       id="path341"
       d="m 3977.5022,4141.2252 c -0.6041,0 -1.168,0.2713 -1.5304,0.7751 l -12.9077,17.7511 -24.3456,12.6543 -22.8957,60.055 -15.9887,55.5396 -35.7833,15.3287 -44.7039,8.391 -10.9748,61.6052 -2.6983,53.0592 -46.2545,6.298 -47.9258,-3.1393 -44.8851,-12.6543 -38.7636,-21.1229 -29.8631,-28.1768 -19.0898,-33.1184 -7.0479,-36.1027 c -0.1811,-0.9884 -1.1679,-1.6279 -2.1748,-1.4534 -1.0269,0.1937 -1.6915,1.1239 -1.4902,2.1123 l 7.2897,36.9359 19.6939,34.0099 30.6282,28.7968 39.5489,21.5105 45.6906,12.8288 48.5301,3.1782 0.2014,-0.02 49.4964,-6.7243 2.8393,-55.8304 10.5115,-58.9504 42.7708,-8.0615 37.5756,-16.1038 16.4115,-57.0319 22.3721,-58.6596 23.8823,-12.4025 13.4113,-18.4293 c 0.584,-0.8332 0.3826,-1.9378 -0.4632,-2.5192 -0.3221,-0.2131 -0.7047,-0.3294 -1.0672,-0.3294"
       style="fill:#5ea4ab;fill-opacity:1;fill-rule:nonzero;stroke:none;stroke-width:0.197542" />
    <path
       id="path342"
       d="m 3605.0699,4079.9881 c -0.9062,0 -1.7116,0.659 -1.8526,1.5698 l -3.7857,26.6652 8.5179,28.3124 -19.5933,71.5466 -11.0148,66.7794 c -0.1612,0.9689 0.5236,1.8991 1.5505,2.0542 1.027,0.1356 1.9735,-0.5233 2.1345,-1.4922 l 10.9746,-66.605 19.8349,-72.3217 -8.5783,-28.545 3.6649,-25.9095 c 0.141,-0.9883 -0.5638,-1.8991 -1.5907,-2.0348 -0.081,0 -0.1813,-0.02 -0.2619,-0.02"
       style="fill:#5ea4ab;fill-opacity:1;fill-rule:nonzero;stroke:none;stroke-width:0.197542" />
    <path
       id="path343"
       d="m 3582.4562,4175.39 c -1.0068,0 -1.8325,0.7558 -1.8526,1.7442 l -3.2823,97.9404 c -0.04,0.9884 0.7652,1.8217 1.7922,1.8604 0.8859,0.097 1.8928,-0.7364 1.9331,-1.744 l 3.2823,-97.9599 c 0.04,-0.9884 -0.7854,-1.8217 -1.8124,-1.8411 -0.02,0 -0.04,0 -0.059,0"
       style="fill:#5ea4ab;fill-opacity:1;fill-rule:nonzero;stroke:none;stroke-width:0.197542" />
    <path
       id="path344"
       d="m 4030.2207,4037.4904 c -0.5036,0 -0.9868,0.1939 -1.3694,0.562 l -7.7124,7.8291 -19.11,2.0347 -34.7563,63.3688 -28.3527,60.7719 -32.501,5.7942 -41.925,-0.9495 -26.6614,70.3644 -18.2843,64.1827 -46.1135,-0.078 -47.8051,-8.236 -44.9858,-15.8906 -38.8844,-22.2275 -30.2658,-27.169 -19.5931,-29.9984 -7.6119,-31.0837 c -0.2417,-0.9689 -1.2686,-1.5697 -2.2553,-1.3372 -1.0069,0.2326 -1.631,1.2016 -1.3895,2.1705 l 7.934,31.8976 20.1772,30.8317 30.9302,27.6728 39.3677,22.4795 45.6101,16.1232 48.4293,8.3328 49.3154,0.1163 18.9891,-66.7018 25.6947,-67.7872 39.6294,0.8915 0.2014,-0.038 34.5952,-6.1625 29.1179,-62.3999 33.7696,-61.5664 18.5059,-1.9766 8.6589,-8.7786 c 0.7048,-0.7171 0.6846,-1.8604 -0.061,-2.5387 -0.3625,-0.3294 -0.8256,-0.5038 -1.2887,-0.5038"
       style="fill:#5ea4ab;fill-opacity:1;fill-rule:nonzero;stroke:none;stroke-width:0.197542" />
    <path
       id="path345"
       d="m 3587.2487,4145.2754 c -0.9062,0 -1.7116,0.6395 -1.8526,1.5309 l -4.7724,30.1147 c -0.1611,0.9689 0.5436,1.8797 1.5506,2.0348 1.047,0.1549 1.9734,-0.5233 2.1345,-1.5116 l 4.7926,-30.0953 c 0.1409,-0.9883 -0.5438,-1.8991 -1.5707,-2.0542 -0.1008,-0.019 -0.2014,-0.019 -0.282,-0.019"
       style="fill:#5ea4ab;fill-opacity:1;fill-rule:nonzero;stroke:none;stroke-width:0.197542" />
    <path
       id="path346"
       d="m 3628.3482,4033.2852 c -0.7652,0 -1.4902,0.4651 -1.7518,1.2016 l -27.0238,72.9998 -18.9086,69.2405 c -0.282,0.9496 0.3222,1.938 1.329,2.1899 0.9868,0.2519 2.0138,-0.3101 2.2755,-1.279 l 18.8884,-69.0855 26.9633,-72.8643 c 0.3424,-0.9302 -0.1611,-1.9573 -1.1477,-2.306 -0.2014,-0.059 -0.4028,-0.097 -0.6243,-0.097"
       style="fill:#5ea4ab;fill-opacity:1;fill-rule:nonzero;stroke:none;stroke-width:0.197542" />
    <path
       id="path347"
       d="m 4085.8187,3924.5701 c -0.584,0 -1.168,0.2908 -1.5304,0.7945 l -43.4153,60.927 -38.6024,61.334 -27.0842,-4.3603 -37.1324,-11.1622 -40.5961,74.124 -32.7829,70.4807 -43.7373,-7.6546 -46.1538,-14.224 -44.1402,-19.6502 -38.9851,-23.6227 -30.9101,-25.8319 -20.9827,-26.2584 -9.6657,-25.018 c -0.3624,-0.9302 -1.4297,-1.3953 -2.3963,-1.0465 -0.9665,0.3488 -1.47,1.3759 -1.1074,2.3061 l 10.0281,25.735 21.5464,26.8979 31.2526,26.0838 39.4482,23.894 44.5429,19.8441 46.6169,14.3596 46.8585,8.2166 33.9308,-72.9418 39.0857,-71.3721 34.414,10.3482 29.8429,4.8059 39.851,-63.3493 43.3548,-60.8302 c 0.584,-0.8331 0.3624,-1.9377 -0.4833,-2.4997 -0.3222,-0.2132 -0.7048,-0.3295 -1.0672,-0.3295"
       style="fill:#5ea4ab;fill-opacity:1;fill-rule:nonzero;stroke:none;stroke-width:0.197542" />
    <path
       id="path348"
       d="m 4085.8187,3924.5701 c -0.5638,0 -1.1277,0.2519 -1.4902,0.7364 -0.6242,0.7945 -0.443,1.9185 0.3827,2.5192 l 11.7801,8.4686 1.5102,1.3372 c 0.7652,0.6588 1.933,0.6007 2.6378,-0.1358 0.6848,-0.7364 0.6444,-1.8603 -0.1207,-2.5385 l -1.6512,-1.4341 -11.921,-8.5848 c -0.3423,-0.2519 -0.7249,-0.3682 -1.1277,-0.3682"
       style="fill:#5ea4ab;fill-opacity:1;fill-rule:nonzero;stroke:none;stroke-width:0.197542" />
    <path
       id="path349"
       d="m 3630.5633,4011.0577 c -0.9464,0 -1.752,0.6783 -1.8526,1.6085 l -2.2151,22.2468 c -0.1009,0.9884 0.6444,1.8604 1.6714,1.9573 1.0269,0.059 1.9532,-0.6201 2.0539,-1.6084 l 2.2151,-22.2469 c 0.1009,-0.9883 -0.6645,-1.8604 -1.6915,-1.9573 -0.061,0 -0.1209,0 -0.1812,0"
       style="fill:#5ea4ab;fill-opacity:1;fill-rule:nonzero;stroke:none;stroke-width:0.197542" />
    <path
       id="path350"
       d="m 3704.7075,3881.0453 c -0.6647,0 -1.3292,0.3488 -1.6514,0.969 l -41.7035,76.6819 -34.7161,75.6549 c -0.4027,0.9108 0.02,1.9766 0.9666,2.3836 0.9465,0.3876 2.054,-0.019 2.4568,-0.9302 l 34.6556,-75.5579 41.6431,-76.5658 c 0.4833,-0.872 0.1208,-1.9766 -0.7853,-2.4224 -0.2819,-0.1356 -0.5638,-0.2131 -0.8658,-0.2131"
       style="fill:#5ea4ab;fill-opacity:1;fill-rule:nonzero;stroke:none;stroke-width:0.197542" />
    <path
       id="path351"
       d="m 3704.7075,3881.0453 c -0.3626,0 -0.7251,0.097 -1.0472,0.3101 -0.8458,0.562 -1.0875,1.686 -0.5035,2.4999 l 13.1495,18.623 23.7414,22.6344 32.3197,24.6887 38.824,25.0955 42.5694,23.7971 43.375,20.813 42.6097,17.0145 46.496,-73.8914 50.5035,-70.8683 c 0.584,-0.8139 0.3624,-1.9379 -0.4833,-2.4999 -0.8457,-0.5619 -2.0137,-0.3487 -2.5976,0.4651 l -50.5638,70.9458 -44.8852,71.3334 -39.549,-15.7743 -43.1332,-20.6966 -42.3681,-23.6809 -38.6025,-24.9599 -32.0377,-24.456 -23.3589,-22.2469 -12.9078,-18.3517 c -0.3624,-0.5232 -0.9464,-0.7946 -1.5504,-0.7946"
       style="fill:#5ea4ab;fill-opacity:1;fill-rule:nonzero;stroke:none;stroke-width:0.197542" />
    <path
       id="path352"
       d="m 4181.8516,3811.3785 c -0.5236,0 -1.0471,0.2131 -1.4096,0.6201 l -49.2549,54.8032 -45.7309,57.09 -49.1542,-34.5911 c -0.8256,-0.5814 -1.9935,-0.407 -2.5977,0.3875 -0.6242,0.814 -0.443,1.9379 0.4028,2.5193 l 52.074,36.6648 47.8857,-59.8031 49.1944,-54.7064 c 0.6846,-0.7557 0.5839,-1.899 -0.1812,-2.5387 -0.3625,-0.31 -0.8055,-0.4456 -1.2284,-0.4456"
       style="fill:#5ea4ab;fill-opacity:1;fill-rule:nonzero;stroke:none;stroke-width:0.197542" />
    <path
       id="path353"
       d="m 4181.8516,3811.3785 c -0.1208,0 -0.2417,0.019 -0.3625,0.038 -1.0068,0.1744 -1.6713,1.124 -1.47,2.0929 l 3.4837,17.4216 -5.6182,9.825 c -0.5034,0.872 -0.1611,1.9573 0.745,2.4418 0.9061,0.465 2.0339,0.1549 2.5374,-0.7171 l 6.2625,-10.949 -3.7455,-18.7005 c -0.1812,-0.8527 -0.9464,-1.4535 -1.8324,-1.4535"
       style="fill:#5ea4ab;fill-opacity:1;fill-rule:nonzero;stroke:none;stroke-width:0.197542" />
    <path
       id="path354"
       d="m 3702.6132,3867.3638 c -0.081,0 -0.1813,0.02 -0.282,0.02 -1.0068,0.1551 -1.7116,1.0658 -1.5707,2.0541 l 2.0943,13.6622 c 0.1611,0.9883 1.0874,1.647 2.1345,1.5308 1.0069,-0.1551 1.7117,-1.0658 1.5707,-2.0541 l -2.0942,-13.6621 c -0.141,-0.8915 -0.9464,-1.5503 -1.8526,-1.5503"
       style="fill:#5ea4ab;fill-opacity:1;fill-rule:nonzero;stroke:none;stroke-width:0.197542" />
    <path
       id="path355"
       d="m 3805.9155,3730.2201 c -0.5839,0 -1.1679,0.2713 -1.5304,0.7751 l -53.2822,74.5115 -47.9863,76.4107 c -0.5438,0.8526 -0.2618,1.9573 0.6243,2.4611 0.886,0.5232 2.0337,0.2519 2.5573,-0.6008 l 47.946,-76.3331 53.2218,-74.4147 c 0.584,-0.8138 0.3625,-1.9378 -0.4832,-2.4998 -0.3222,-0.2132 -0.6846,-0.31 -1.0673,-0.31"
       style="fill:#5ea4ab;fill-opacity:1;fill-rule:nonzero;stroke:none;stroke-width:0.197542" />
    <path
       id="path356"
       d="m 3805.9155,3730.2201 c -0.5839,0 -1.1478,0.2519 -1.5103,0.7557 -0.6041,0.814 -0.4027,1.9379 0.4431,2.4999 l 43.9589,30.0566 110.9342,76.7981 75.8356,52.9042 55.6182,-69.3567 57.3499,-63.6207 c 0.6847,-0.7558 0.6041,-1.8992 -0.1812,-2.5387 -0.7853,-0.6588 -1.9532,-0.5813 -2.638,0.1745 l -57.4103,63.7175 -53.4836,66.6631 -112.7265,-78.5036 -97.4829,-67.2638 -17.6196,-11.9568 c -0.3222,-0.2325 -0.7048,-0.3293 -1.0875,-0.3293"
       style="fill:#5ea4ab;fill-opacity:1;fill-rule:nonzero;stroke:none;stroke-width:0.197542" />
    <path
       id="path357"
       d="m 4147.1355,3757.2729 c -0.3826,0 -0.745,0.097 -1.0672,0.3294 -0.8457,0.562 -1.0472,1.686 -0.4631,2.4999 l 21.627,29.4751 12.948,24.4173 c 0.4833,0.8915 1.611,1.2402 2.5172,0.7752 0.9262,-0.4457 1.2888,-1.531 0.8255,-2.403 l -13.1091,-24.6499 -21.7478,-29.6883 c -0.3625,-0.4844 -0.9465,-0.7557 -1.5305,-0.7557"
       style="fill:#5ea4ab;fill-opacity:1;fill-rule:nonzero;stroke:none;stroke-width:0.197542" />
    <path
       id="path358"
       d="m 4284.0667,3716.5386 c -0.4432,0 -0.8861,0.155 -1.2487,0.465 l -51.4094,44.6489 -50.9062,50.2686 c -0.7048,0.717 -0.7048,1.841 0.04,2.5387 0.7451,0.6975 1.9331,0.6782 2.6379,-0.019 l 50.8255,-50.1912 51.3089,-44.5713 c 0.7652,-0.6783 0.8256,-1.8217 0.1409,-2.558 -0.3624,-0.3876 -0.8658,-0.5813 -1.3893,-0.5813"
       style="fill:#5ea4ab;fill-opacity:1;fill-rule:nonzero;stroke:none;stroke-width:0.197542" />
    <path
       id="path359"
       d="m 4284.0667,3716.5386 c -0.8861,0 -1.6714,0.6007 -1.8325,1.4728 l -4.9537,25.58 -13.6931,17.4797 c -0.6243,0.7752 -0.4632,1.9185 0.3624,2.5193 0.8256,0.5813 1.9936,0.4262 2.6177,-0.3682 l 14.2168,-18.1385 5.1349,-26.4134 c 0.1812,-0.9883 -0.4834,-1.9186 -1.5103,-2.1123 -0.1208,-0.02 -0.2215,-0.02 -0.3422,-0.02"
       style="fill:#5ea4ab;fill-opacity:1;fill-rule:nonzero;stroke:none;stroke-width:0.197542" />
    <path
       id="path360"
       d="m 3923.636,3592.0491 -61.5384,67.5157 -56.5647,70.0157 -6.3834,-4.1858 c -0.8457,-0.562 -2.0136,-0.3681 -2.5977,0.4651 -0.584,0.8138 -0.3623,1.9378 0.5035,2.4998 l 9.2629,6.085 58.6589,-72.593 59.9275,-65.7524 21.6472,5.5812 29.2588,14.0108 34.2127,21.278 36.6895,27.1692 36.5283,31.0641 33.7898,32.8083 28.695,32.227 c 0.6646,0.7558 1.8527,0.8527 2.6178,0.1938 0.7854,-0.6394 0.8861,-1.7829 0.2216,-2.5386 l -28.7958,-32.3044 -33.9508,-33.0022 -36.7297,-31.2192 -36.9111,-27.3243 -34.5147,-21.4717 -29.8026,-14.2433 -24.2246,-6.2788"
       style="fill:#5ea4ab;fill-opacity:1;fill-rule:nonzero;stroke:none;stroke-width:0.197542" />
    <path
       id="path361"
       d="m 4266.2253,3647.2206 c -0.443,0 -0.886,0.155 -1.2485,0.4652 l -59.8872,51.78 -59.2831,58.3496 c -0.7249,0.7171 -0.7048,1.8411 0.02,2.5387 0.7451,0.6976 1.9332,0.6782 2.638,-0.02 l 59.2227,-58.2721 59.7864,-51.7027 c 0.7854,-0.6589 0.8458,-1.8022 0.141,-2.5385 -0.3624,-0.3877 -0.8659,-0.6008 -1.3894,-0.6008"
       style="fill:#5ea4ab;fill-opacity:1;fill-rule:nonzero;stroke:none;stroke-width:0.197542" />
    <path
       id="path362"
       d="m 4266.2253,3647.2206 c -0.2014,0 -0.4027,0.038 -0.6041,0.1162 -0.9867,0.3295 -1.4902,1.3566 -1.1478,2.2867 l 13.3909,36.6067 4.3497,32.3432 c 0.1409,0.9883 1.0672,1.686 2.0943,1.5503 1.027,-0.1357 1.7519,-1.027 1.6109,-2.0154 l -4.4705,-32.9052 -13.4514,-36.781 c -0.2617,-0.7363 -0.9867,-1.2015 -1.772,-1.2015"
       style="fill:#5ea4ab;fill-opacity:1;fill-rule:nonzero;stroke:none;stroke-width:0.197542" />
    <path
       id="path363"
       d="m 4384.9123,3646.7554 c -0.3424,0 -0.7048,0.097 -1.0069,0.2907 l -49.7986,31.4131 -51.188,38.4476 c -0.8055,0.6201 -0.9465,1.7441 -0.3222,2.5386 0.6444,0.7752 1.8123,0.9302 2.6178,0.31 l 51.0673,-38.3701 49.6576,-31.316 c 0.8658,-0.562 1.1075,-1.6666 0.5436,-2.4999 -0.3625,-0.5233 -0.9464,-0.814 -1.5706,-0.814"
       style="fill:#5ea4ab;fill-opacity:1;fill-rule:nonzero;stroke:none;stroke-width:0.197542" />
    <path
       id="path364"
       d="m 4384.9123,3646.7554 c -0.725,0 -1.4298,0.4264 -1.7117,1.124 l -13.3709,31.4131 -21.5667,22.9639 c -0.6846,0.7364 -0.6242,1.8798 0.1409,2.5386 0.7452,0.6589 1.9332,0.6201 2.638,-0.1162 l 22.1305,-23.7197 13.4717,-31.7231 c 0.4027,-0.9108 -0.061,-1.9766 -1.0069,-2.3448 -0.2417,-0.097 -0.4833,-0.1358 -0.7249,-0.1358"
       style="fill:#5ea4ab;fill-opacity:1;fill-rule:nonzero;stroke:none;stroke-width:0.197542" />
    <path
       id="path365"
       d="m 4049.975,3477.5203 -64.1562,54.3575 -62.4648,60.5395 -13.9146,2.5386 c -1.0068,0.1939 -1.6713,1.124 -1.4699,2.1124 0.1812,0.9689 1.1477,1.6083 2.1747,1.4146 l 15.0422,-2.7518 0.4028,-0.3875 62.787,-60.8495 62.948,-53.3305 27.1445,0.7751 32.5413,10.6971 35.3603,19.9602 35.3403,27.828 33.0245,33.7772 28.2522,37.3624 21.6069,38.3312 c 0.4833,0.8527 1.6311,1.1821 2.5372,0.7171 0.9062,-0.4845 1.2284,-1.5697 0.7452,-2.4418 l -21.7278,-38.5057 -28.5541,-37.7498 -33.3267,-34.1068 -35.7832,-28.1574 -36.0854,-20.3671 -33.528,-10.9297 -28.8964,-0.8333"
       style="fill:#5ea4ab;fill-opacity:1;fill-rule:nonzero;stroke:none;stroke-width:0.197542" />
    <path
       id="path366"
       d="m 4383.5631,3566.6435 c -0.3625,0 -0.7048,0.097 -1.0269,0.2906 l -57.8937,36.1997 -59.565,44.4743 c -0.8055,0.6008 -0.9465,1.7441 -0.3223,2.5193 0.6445,0.7945 1.8123,0.9301 2.6178,0.3294 l 59.4443,-44.3774 57.7526,-36.1415 c 0.8659,-0.5233 1.1277,-1.6472 0.5639,-2.4805 -0.3625,-0.5233 -0.9666,-0.8139 -1.5707,-0.8139"
       style="fill:#5ea4ab;fill-opacity:1;fill-rule:nonzero;stroke:none;stroke-width:0.197542" />
    <path
       id="path367"
       d="m 4383.5631,3566.6435 c -0.081,0 -0.1611,0 -0.2416,0.02 -1.027,0.1162 -1.752,1.0076 -1.611,1.996 l 5.437,41.7419 -4.0879,37.963 c -0.1009,0.9884 0.6445,1.8798 1.6714,1.9767 1.027,0.1357 1.9533,-0.6007 2.054,-1.589 l 4.1281,-38.3895 -5.4974,-42.1489 c -0.1208,-0.9108 -0.9264,-1.5696 -1.8526,-1.5696"
       style="fill:#5ea4ab;fill-opacity:1;fill-rule:nonzero;stroke:none;stroke-width:0.197542" />
    <path
       id="path368"
       d="m 4477.1595,3606.6219 c -0.2215,0 -0.443,0.038 -0.6645,0.1164 l -44.6033,16.1619 -47.8453,24.0685 c -0.9062,0.4457 -1.2687,1.5502 -0.7853,2.4224 0.4832,0.872 1.6108,1.2208 2.5372,0.7557 l 47.6037,-23.9715 44.422,-16.0845 c 0.9666,-0.3489 1.4499,-1.3759 1.0873,-2.3061 -0.2818,-0.717 -0.9865,-1.1628 -1.7518,-1.1628"
       style="fill:#5ea4ab;fill-opacity:1;fill-rule:nonzero;stroke:none;stroke-width:0.197542" />
    <path
       id="path369"
       d="m 4477.1595,3606.6219 c -0.6444,0 -1.2687,0.3102 -1.6109,0.8915 l -20.9626,34.6106 -28.4131,25.8319 -34.3939,15.5418 c -0.9264,0.4263 -1.3291,1.4921 -0.9063,2.3836 0.443,0.9109 1.5707,1.279 2.4971,0.872 l 35.1388,-15.9874 29.1785,-26.6072 21.0833,-34.843 c 0.5235,-0.8527 0.2215,-1.9574 -0.6646,-2.4612 -0.302,-0.1549 -0.6241,-0.2326 -0.9463,-0.2326"
       style="fill:#5ea4ab;fill-opacity:1;fill-rule:nonzero;stroke:none;stroke-width:0.197542" />
    <path
       id="path370"
       d="m 4209.0365,3391.3621 -34.112,2.8681 -62.0418,37.5756 -63.1898,45.9664 -21.2845,8.9918 c -0.9465,0.407 -1.3694,1.4728 -0.9465,2.3837 0.4027,0.9107 1.5103,1.2983 2.4567,0.9107 l 21.8687,-9.2824 63.2097,-46.0247 61.1559,-37.0329 32.6015,-2.7324 35.6424,8.2941 36.1459,18.8169 34.1723,28.293 29.5005,35.5601 22.8756,40.5017 14.6999,42.5559 c 0.3222,0.9302 1.3693,1.4535 2.3561,1.1434 0.9867,-0.3294 1.5103,-1.3372 1.1881,-2.2867 l -14.8208,-42.8272 -23.1978,-41.0637 -29.9234,-36.064 -34.8974,-28.8938 -36.9712,-19.1656 -36.4881,-8.488"
       style="fill:#5ea4ab;fill-opacity:1;fill-rule:nonzero;stroke:none;stroke-width:0.197542" />
    <path
       id="path371"
       d="m 4537.7918,3511.6658 -47.5231,9.108 -52.0541,18.468 -55.5174,27.5955 c -0.9062,0.4652 -1.2686,1.5502 -0.8054,2.4224 0.4832,0.8914 1.611,1.2402 2.517,0.7751 l 55.3161,-27.4986 51.5505,-18.313 46.8787,-8.9723 41.7036,0.2714 35.8035,9.3017 29.4402,18.0804 22.7749,26.4134 15.8678,34.3393 8.7595,41.7612 1.4499,47.7107 -14.5791,31.5099 -25.3524,27.7311 -34.5147,21.8205 -41.2605,14.3985 -45.2275,5.8331 -45.9525,-3.0619 -43.4554,-11.8599 -37.938,-19.7081 -29.7421,-26.1615 -19.7947,-30.9866 c -0.5437,-0.8334 -1.6914,-1.1047 -2.5774,-0.5814 -0.866,0.5231 -1.1479,1.6277 -0.6043,2.4804 l 20.2579,31.5681 30.4872,26.7427 38.7032,20.0571 44.2206,12.0149 46.5163,3.1007 46.174,-5.9882 42.066,-14.7279 35.2999,-22.3825 25.9968,-28.5644 15.0423,-32.5175 -0.02,-0.407 -1.4901,-48.4277 -8.981,-42.6528 -16.311,-35.1531 -23.5602,-27.1885 -30.447,-18.5842 -36.7699,-9.515 -42.348,-0.252"
       style="fill:#5ea4ab;fill-opacity:1;fill-rule:nonzero;stroke:none;stroke-width:0.197542" />
    <path
       id="path372"
       d="m 4354.5457,3701.7914 c -0.9665,0 -1.7921,0.7169 -1.8726,1.6664 l -2.8796,34.4556 20.6806,30.5798 29.2792,25.2894 -6.8668,33.7578 c -0.2014,0.9689 0.4631,1.9186 1.47,2.0929 1.0269,0.2132 2.0137,-0.4263 2.1949,-1.4146 l 7.2895,-35.7539 -30.6885,-26.4909 -19.5328,-28.9713 2.7989,-33.2735 c 0.081,-0.9882 -0.6847,-1.8409 -1.7317,-1.9184 -0.04,-0.019 -0.1009,-0.019 -0.1411,-0.019"
       style="fill:#5ea4ab;fill-opacity:1;fill-rule:nonzero;stroke:none;stroke-width:0.197542" />
    <path
       id="path373"
       d="m 4343.551,3705.5315 c -0.3423,0 -0.7047,0.097 -1.027,0.2907 l -1.3089,0.8332 -7.7929,38.9901 9.3636,29.7466 20.58,28.4093 30.1247,25.425 c 0.7653,0.6588 1.9534,0.5814 2.638,-0.1551 0.6847,-0.7558 0.6041,-1.8991 -0.1611,-2.5386 l -29.9638,-25.2893 -19.9758,-27.673 -8.7595,-28.0992 7.3098,-36.6454 c 0.8658,-0.5425 1.1075,-1.6471 0.5436,-2.4805 -0.3624,-0.5425 -0.9666,-0.8138 -1.5707,-0.8138"
       style="fill:#5ea4ab;fill-opacity:1;fill-rule:nonzero;stroke:none;stroke-width:0.197542" />
    <path
       id="path374"
       d="m 4343.551,3705.5315 c -0.1611,0 -0.3021,0.019 -0.4631,0.059 -1.0068,0.2519 -1.611,1.2209 -1.3492,2.1898 l 8.0548,29.7465 -7.3097,36.4903 -12.0217,40.0366 21.6068,27.4016 30.2256,24.8437 38.0386,21.7043 42.8312,16.8595 44.724,10.8134 41.0593,3.837 -18.0629,45.4821 -22.654,47.478 -38.3004,-11.0265 -43.2339,-17.034 -24.4665,44.2225 -26.782,42.4783 -29.5207,41.5869 -31.7962,40.0561 c -0.6242,0.7945 -0.4833,1.9185 0.3423,2.5192 0.8256,0.6008 1.9936,0.4457 2.6178,-0.3295 l 31.8567,-40.1334 29.6414,-41.742 26.8829,-42.6528 22.936,-41.4513 40.2738,15.8713 41.5826,11.9955 24.0637,-50.443 19.855,-49.9974 -45.6706,-4.2633 -44.1804,-10.6584 -42.3479,-16.6658 -37.5151,-21.4135 -29.8227,-24.553 -20.0564,-25.5219 11.5183,-38.4476 7.5112,-37.4592 -8.2562,-30.541 c -0.2216,-0.8139 -0.9867,-1.3371 -1.8124,-1.3371"
       style="fill:#5ea4ab;fill-opacity:1;fill-rule:nonzero;stroke:none;stroke-width:0.197542" />
    <path
       id="path375"
       d="m 4154.3042,4050.2417 c -0.8658,0 -1.6512,0.6007 -1.8324,1.4534 -0.2013,0.969 0.4632,1.9185 1.47,2.1123 l 10.9747,2.0542 19.432,9.1273 26.7217,15.8132 32.1386,21.3167 35.2799,25.4443 35.9443,27.6923 c 0.8055,0.6008 1.9936,0.4846 2.638,-0.2906 0.6444,-0.7752 0.5034,-1.8991 -0.302,-2.5193 l -35.9847,-27.7311 -35.4008,-25.5025 -32.2794,-21.4329 -26.9633,-15.9294 -20.2779,-9.4762 -11.1961,-2.093 c -0.1209,-0.038 -0.2416,-0.038 -0.3626,-0.038"
       style="fill:#5ea4ab;fill-opacity:1;fill-rule:nonzero;stroke:none;stroke-width:0.197542" />
    <path
       id="path376"
       d="m 4225.1057,3956.3127 c -0.3222,0 -0.6644,0.078 -0.9666,0.2518 -0.886,0.5232 -1.1679,1.6279 -0.6242,2.4805 l 6.1215,9.5538 15.5056,14.7085 24.426,19.3788 31.4136,22.5375 36.3472,24.1848 38.703,24.146 38.361,22.4019 33.6085,18.1773 -33.1052,46.6642 -37.797,47.6912 24.6275,24.0491 15.4852,17.8092 5.88,10.4645 -2.1949,3.7788 c -0.5034,0.8721 -0.1812,1.9767 0.7048,2.4612 0.9062,0.4651 2.054,0.1745 2.5575,-0.6976 l 3.2017,-5.523 -7.0682,-12.4993 -15.8074,-18.1967 -22.4325,-21.9369 35.8638,-45.2882 35.4611,-49.9973 -37.0921,-20.0571 -38.2602,-22.3438 -38.6227,-24.0878 -36.2463,-24.1266 -31.2928,-22.4407 -24.2247,-19.2239 -15.2235,-14.4372 -5.6988,-9.0304 c -0.3625,-0.5619 -0.9665,-0.8526 -1.6109,-0.8526"
       style="fill:#5ea4ab;fill-opacity:1;fill-rule:nonzero;stroke:none;stroke-width:0.197542" />
    <path
       id="path377"
       d="m 4324.9043,4347.9971 c -0.9868,0 -1.8124,0.7558 -1.8526,1.7247 l -0.8659,19.1269 -9.263,11.6467 c -0.6243,0.7945 -0.4834,1.9185 0.3423,2.5192 0.8255,0.6201 1.9936,0.4651 2.6178,-0.3293 l 9.988,-12.5383 0.9061,-20.2701 c 0.04,-0.9884 -0.745,-1.8217 -1.7921,-1.8798 -0.02,0 -0.04,0 -0.081,0"
       style="fill:#5ea4ab;fill-opacity:1;fill-rule:nonzero;stroke:none;stroke-width:0.197542" />
    <path
       id="path378"
       d="m 4324.9043,4347.9971 c -0.4431,0 -0.9062,0.1551 -1.2686,0.4845 l -48.671,43.8543 -48.7717,38.5251 c -0.7852,0.6201 -0.906,1.7634 -0.2616,2.5192 0.6644,0.7751 1.8324,0.8914 2.6379,0.252 l 48.8521,-38.5834 48.7716,-43.9317 c 0.7451,-0.6782 0.7854,-1.8216 0.081,-2.5386 -0.3625,-0.3876 -0.866,-0.5814 -1.3693,-0.5814"
       style="fill:#5ea4ab;fill-opacity:1;fill-rule:nonzero;stroke:none;stroke-width:0.197542" />
    <path
       id="path379"
       d="m 4315.6009,4152.0386 c -0.5235,0 -1.047,0.2132 -1.4095,0.6395 l -33.6286,37.9049 -35.9646,36.1996 30.5276,34.4363 22.7749,31.6455 -39.9114,35.8314 -42.0661,33.0214 9.3436,37.8857 0.2416,32.6533 c 0.02,0.9883 0.8457,1.7828 1.8728,1.7828 h 0.02 c 1.027,0 1.8526,-0.8139 1.8526,-1.8022 l -0.302,-33.2734 -8.8402,-35.8896 40.3343,-31.665 42.3681,-38.0212 -24.7281,-34.3586 -28.4535,-32.1107 33.7092,-33.9129 33.6891,-38.0019 c 0.6644,-0.7557 0.5839,-1.8796 -0.2014,-2.5193 -0.3625,-0.2907 -0.7853,-0.4456 -1.2283,-0.4456"
       style="fill:#5ea4ab;fill-opacity:1;fill-rule:nonzero;stroke:none;stroke-width:0.197542" />
    <path
       id="path380"
       d="m 4315.6009,4152.0386 c -0.5235,0 -1.047,0.2132 -1.4095,0.6395 -0.6645,0.7558 -0.5839,1.8798 0.2015,2.5386 l 34.1118,28.0605 28.4737,25.2118 -37.7166,42.6915 -41.1799,41.6451 17.0761,31.7425 7.9541,25.7544 c 0.302,0.9497 1.3491,1.4728 2.3359,1.2017 0.9866,-0.2908 1.5504,-1.2791 1.2484,-2.2482 l -8.095,-26.0644 -15.9686,-29.7659 39.4079,-39.8621 40.1129,-45.3853 -31.1721,-27.6147 -34.1521,-28.0994 c -0.3625,-0.2907 -0.7853,-0.4456 -1.2285,-0.4456"
       style="fill:#5ea4ab;fill-opacity:1;fill-rule:nonzero;stroke:none;stroke-width:0.197542" />
    <path
       id="path381"
       d="m 4453.3375,4112.7964 30.0443,-47.6524 26.8827,-48.5051 33.7294,5.426 25.0704,-0.4264 -31.0712,55.9854 -35.9444,56.9737 -20.8417,-8.2747 z m 54.8932,-100.1302 -28.091,50.695 -32.0982,50.8886 31.5948,15.3288 20.3383,8.1003 -39.2468,55.3847 -43.5763,55.0357 -45.9525,52.1097 -47.6439,48.35 c -0.7048,0.717 -0.6847,1.8605 0.061,2.5581 0.7651,0.6588 1.9532,0.6394 2.658,-0.078 l 47.7044,-48.4276 46.0934,-52.2453 43.677,-55.2103 40.0926,-56.5474 15.8075,-0.8527 c 1.027,-0.059 1.8123,-0.9107 1.7519,-1.899 -0.061,-0.9884 -0.9062,-1.7442 -1.9734,-1.7053 l -13.1897,0.7169 34.998,-55.4621 34.1321,-61.4696 -31.0914,0.5426 -36.0452,-5.8137"
       style="fill:#5ea4ab;fill-opacity:1;fill-rule:nonzero;stroke:none;stroke-width:0.197542" />
    <path
       id="path382"
       d="m 4049.1694,4194.0324 33.0649,-25.3863 34.7966,-30.6765 28.695,12.4024 32.9844,20.309 34.1723,26.5684 31.5345,29.572 -34.1121,30.4053 -34.132,26.5878 -28.8562,-32.4207 -33.528,-27.9056 -34.9577,-20.0377 z m 233.9105,-335.9509 c -0.06,0 -0.1209,0 -0.1611,0 -1.027,0.078 -1.7921,0.9495 -1.7116,1.9377 l 1.6712,17.4216 11.6392,19.592 -23.0165,41.7614 -26.6411,42.3039 -29.4402,41.3931 -31.7358,39.7847 -33.548,37.5756 -34.112,34.0485 -23.7413,-4.2633 -17.6803,4.3602 c -0.9867,0.2519 -1.5908,1.221 -1.3291,2.1898 0.2417,0.9689 1.2687,1.5309 2.2756,1.2983 l 16.8545,-4.1857 20.2377,3.6433 -32.8434,28.9712 -38.3608,29.4558 36.025,11.4335 34.1522,19.5919 33.0647,27.5374 31.011,34.8818 37.072,-28.8744 37.0721,-33.0603 -34.4744,-32.3238 -34.4744,-26.801 -33.3871,-20.5414 -27.4667,-11.8792 0.6645,-0.6008 -0.2819,-0.038 32.4808,-32.4208 33.689,-37.7306 31.8567,-39.959 29.561,-41.5482 26.7419,-42.459 24.0434,-43.6023 -12.4447,-20.9679 -1.4095,-16.2781 c -0.081,-0.9303 -0.9062,-1.6473 -1.8526,-1.6473"
       style="fill:#5ea4ab;fill-opacity:1;fill-rule:nonzero;stroke:none;stroke-width:0.197542" />
    <path
       id="path383"
       d="m 4366.1849,3693.3034 c -0.3222,0 -0.6644,0.078 -0.9465,0.252 -0.9061,0.5037 -1.188,1.6084 -0.6645,2.461 l 6.9675,11.1623 30.6081,27.2466 38.8038,19.6113 44.2811,10.7165 46.5767,0.9882 43.6567,-8.2553 1.3492,32.9247 -4.128,41.6062 44.2206,-11.8211 34.8369,-18.5455 25.594,-24.7661 14.4583,-28.5644 c 0.4431,-0.8914 0.061,-1.9766 -0.8658,-2.403 -0.9263,-0.4456 -2.054,-0.059 -2.497,0.8333 l -14.3174,28.2931 -24.8086,23.8748 -34.0113,18.0222 -38.3809,10.2126 3.6246,-36.6259 -1.5102,-37.3817 -47.5434,8.9918 -45.9524,-0.9884 -43.4554,-10.5421 -37.9783,-19.2431 -29.8027,-26.6459 -6.5041,-10.542 c -0.3625,-0.562 -0.9666,-0.8721 -1.611,-0.8721"
       style="fill:#5ea4ab;fill-opacity:1;fill-rule:nonzero;stroke:none;stroke-width:0.197542" />
    <path
       id="path384"
       d="m 4599.5718,3999.1786 c -0.6042,0 -1.188,0.2713 -1.5506,0.7945 l -8.2359,11.7047 -18.2038,6.4145 c -0.9867,0.3487 -1.47,1.3759 -1.1277,2.3061 0.3625,0.9495 1.4499,1.4146 2.3962,1.0851 l 19.3718,-6.8406 8.9005,-12.6545 c 0.5841,-0.8332 0.3424,-1.9572 -0.5033,-2.4998 -0.3222,-0.2132 -0.6848,-0.31 -1.0472,-0.31"
       style="fill:#5ea4ab;fill-opacity:1;fill-rule:nonzero;stroke:none;stroke-width:0.197542" />
    <path
       id="path385"
       d="m 4657.707,3866.9763 c -0.6443,0 -1.2887,0.3101 -1.6311,0.8914 l -12.1022,20.3284 -22.9963,15.8906 -22.7347,57.0124 -27.7285,57.9427 c -0.4229,0.8914 -0.02,1.9573 0.9263,2.3837 0.9263,0.4069 2.0339,0.019 2.4769,-0.8915 l 27.7687,-58.0396 22.3923,-56.121 22.936,-16.0456 12.3036,-20.6578 c 0.5236,-0.8722 0.2014,-1.9766 -0.6846,-2.4612 -0.3021,-0.155 -0.6042,-0.2325 -0.9264,-0.2325"
       style="fill:#5ea4ab;fill-opacity:1;fill-rule:nonzero;stroke:none;stroke-width:0.197542" />
    <path
       id="path386"
       d="m 4697.2156,3606.467 c -0.9665,0 -1.7719,0.7364 -1.8524,1.6666 l -2.8797,36.5097 -14.6195,34.9012 -25.916,31.8975 1.4498,42.362 -4.8329,46.3929 -10.9545,50.5981 -16.5928,53.0011 -30.8901,9.3793 -36.0047,2.7711 13.3709,-43.0791 9.6255,-45.2301 -47.6239,2.965 -45.6705,-5.4261 -43.2541,-13.3714 -36.8103,-19.6888 2.6783,-30.6961 -1.5506,-28.6613 -6.1216,-25.2117 -10.2095,-20.154 c -0.4429,-0.8914 -1.5706,-1.2597 -2.497,-0.814 -0.9262,0.4263 -1.3088,1.5116 -0.8659,2.403 l 10.129,19.9602 5.8799,24.3204 1.5103,28.0993 -2.8797,32.7696 39.2671,20.9678 43.9387,13.5652 46.3351,5.5229 43.1132,-2.6548 -8.6186,40.4629 -14.8812,47.9626 42.066,-3.2944 32.9842,-9.9995 17.197,-54.9971 11.035,-50.9275 4.853,-46.8192 -1.4096,-41.2962 25.5336,-31.4905 14.9416,-35.9284 2.8998,-36.8003 c 0.081,-0.9884 -0.6848,-1.8411 -1.7117,-1.9186 -0.06,-0.019 -0.1009,-0.019 -0.1612,-0.019"
       style="fill:#5ea4ab;fill-opacity:1;fill-rule:nonzero;stroke:none;stroke-width:0.197542" />
    <path
       id="path387"
       d="m 4386.8856,3686.3851 c -0.6845,0 -1.3289,0.3682 -1.6713,0.9884 -0.4631,0.8721 -0.1009,1.9573 0.8257,2.4223 l 38.7837,18.9525 42.4485,8.4104 10.1491,20.3865 6.0411,25.7932 1.4095,29.8822 -3.1212,33.564 -7.652,36.7229 -12.0218,39.1839 -16.1699,41.0444 -19.2509,40.4823 -39.1462,-19.4951 -36.9713,-22.7313 -30.5075,-23.5453 -21.1638,-21.8011 19.3716,-41.1025 16.2707,-41.8389 -9.847,-26.3745 1.6915,-23.6615 c 0.081,-1.0077 -0.7048,-1.8603 -1.7318,-1.9186 -1.0672,-0.1162 -1.913,0.6783 -1.9936,1.6666 l -1.7317,24.4174 9.6456,25.8513 -15.7471,40.4823 -20.3584,43.176 23.0568,23.739 30.8699,23.8166 37.2734,22.9251 42.7909,21.3361 20.9223,-44.0287 16.2706,-41.2769 12.1022,-39.4939 7.7125,-37.0523 3.1616,-34.0098 -1.4499,-30.4248 -6.2626,-26.704 -11.0351,-22.1693 -44.0192,-8.7398 -38.099,-18.6813 c -0.282,-0.1357 -0.5638,-0.1938 -0.8459,-0.1938"
       style="fill:#5ea4ab;fill-opacity:1;fill-rule:nonzero;stroke:none;stroke-width:0.197542" />
    <path
       id="path388"
       d="m 4015.9838,3535.8507 64.0555,-54.3383 65.0222,-47.4006 33.5078,9.205 35.8638,19.3788 34.6557,28.0604 29.9436,33.351 -64.0757,47.4394 -64.9819,55.7916 -33.689,-31.4907 -36.3471,-27.7698 -35.1389,-20.8128 z m 254.3091,-173.8086 c -0.2819,0 -0.5637,0.059 -0.8256,0.1937 l -61.4176,29.3202 -63.9548,38.7963 -31.031,1.3566 -24.9497,11.6079 c -0.9263,0.4456 -1.3289,1.5115 -0.8658,2.4029 0.443,0.8914 1.5505,1.2791 2.497,0.8333 l 24.587,-11.4528 24.4866,-0.9496 -61.1356,44.5713 -68.667,58.2526 34.0918,13.4877 34.6959,20.5609 36.025,27.5179 36.0249,33.6998 67.4789,-57.9427 67.1163,-49.6678 -32.7426,-36.4323 -35.159,-28.448 -36.7298,-19.8439 -30.6282,-8.4104 60.6925,-36.8004 61.2364,-29.2425 c 0.9264,-0.4458 1.309,-1.5117 0.8458,-2.4225 -0.3222,-0.62 -0.9867,-0.9882 -1.6714,-0.9882"
       style="fill:#5ea4ab;fill-opacity:1;fill-rule:nonzero;stroke:none;stroke-width:0.197542" />
    <path
       id="path389"
       d="m 4270.2929,3362.0421 c -0.061,0 -0.141,0 -0.2215,0.02 l -35.743,3.9919 c -1.0271,0.1164 -1.752,1.0078 -1.6311,1.996 0.1208,0.9884 1.0069,1.6473 2.0741,1.5891 l 35.7431,-4.0113 c 1.027,-0.1163 1.7519,-1.0078 1.631,-1.996 -0.1009,-0.9108 -0.9061,-1.5891 -1.8526,-1.5891"
       style="fill:#5ea4ab;fill-opacity:1;fill-rule:nonzero;stroke:none;stroke-width:0.197542" />
    <path
       id="path390"
       d="m 3770.4141,3821.4554 54.6516,-76.4494 59.0214,-73.0968 26.5404,15.2511 33.7092,22.0725 37.3137,26.7233 36.7902,28.3319 -59.0818,73.4844 -54.853,76.8564 -39.6898,-24.7661 -38.2803,-25.5995 -32.6218,-23.7002 z m 216.4317,-290.0619 -18.3851,6.2206 c -0.9665,0.31 -1.4902,1.3565 -1.1478,2.2867 0.3423,0.9301 1.4096,1.434 2.3963,1.1045 l 17.5392,-5.9299 21.2646,2.6549 -62.807,60.9463 -62.5855,68.6979 -19.4321,-8.4297 -11.0552,-1.1047 c -1.0673,-0.097 -1.9533,0.6202 -2.054,1.6085 -0.1008,0.9884 0.6444,1.8798 1.6713,1.9767 l 10.7532,1.0852 17.7003,7.7321 -58.6386,72.6318 -56.6452,79.2206 26.1578,21.2779 32.7628,23.7972 38.381,25.6769 42.8111,26.704 56.8465,-79.6469 61.2765,-76.2169 -39.7301,-30.5797 -37.4144,-26.8009 -33.8702,-22.1888 -26.1377,-14.9992 61.921,-68.0002 68.0627,-66.0236 -29.6414,-3.7013"
       style="fill:#5ea4ab;fill-opacity:1;fill-rule:nonzero;stroke:none;stroke-width:0.197542" />
    <path
       id="path391"
       d="m 3611.9768,4136.2449 27.8897,-75.2867 34.9577,-76.1394 20.3786,22.4019 31.8968,25.5414 39.1864,24.4947 42.1064,21.026 -35.884,77.5152 -28.0709,74.6473 -43.1333,-17.0729 -39.0655,-22.9832 -30.4672,-26.452 z m 135.8639,-340.8927 c -0.282,0 -0.5639,0.078 -0.8257,0.1938 -0.9262,0.4457 -1.3088,1.5309 -0.8457,2.4029 l 5.1348,9.8251 14.2772,14.2628 -49.3154,78.5036 -41.9048,77.0114 -9.4845,-18.4292 0.2618,-17.5767 c 0.02,-0.9883 -0.8055,-1.8022 -1.8325,-1.8215 -0.9062,0 -1.8929,0.7945 -1.8929,1.7828 l -0.2819,18.4292 11.1155,21.6268 -35.8436,78.0578 -28.5944,77.1665 21.3048,29.6689 30.8901,26.8203 39.6093,23.2739 47.0196,18.6619 29.3395,-78.0579 37.2533,-80.4995 -45.0664,-22.4989 -38.844,-24.3011 -31.5144,-25.2117 -21.2444,-23.3902 42.952,-78.9493 50.745,-80.7708 -16.0692,-16.0652 -4.6718,-9.108 c -0.3221,-0.6395 -0.9867,-1.0077 -1.6713,-1.0077"
       style="fill:#5ea4ab;fill-opacity:1;fill-rule:nonzero;stroke:none;stroke-width:0.197542" />
    <path
       id="path392"
       d="m 4677.3002,3804.4796 c -0.6644,0 -1.3088,0.3489 -1.6511,0.969 l -13.4314,24.4173 -23.7816,19.747 -33.0044,13.914 -40.0726,7.0539 -44.0393,-0.5233 -45.0664,-7.9646 -42.8716,-14.9605 -37.7366,-20.8129 c -0.886,-0.5038 -2.0337,-0.1937 -2.5372,0.6589 -0.5236,0.8721 -0.2013,1.9767 0.6846,2.4611 l 38.0185,20.9291 43.4757,15.1737 45.6705,8.081 44.7241,0.5231 41.0591,-7.2476 33.9106,-14.3791 24.7079,-20.6772 13.5925,-24.7273 c 0.4834,-0.872 0.141,-1.9573 -0.7652,-2.4224 -0.2819,-0.1356 -0.5839,-0.2132 -0.8861,-0.2132"
       style="fill:#5ea4ab;fill-opacity:1;fill-rule:nonzero;stroke:none;stroke-width:0.197542" />
    <path
       id="path393"
       d="m 4394.719,3826.087 c -0.8055,0 -1.5507,0.5038 -1.7923,1.279 l -11.1961,37.0523 -15.1228,38.6413 c -0.3625,0.9109 0.1208,1.9572 1.0874,2.3062 0.9666,0.3681 2.0539,-0.1164 2.4164,-1.0466 l 15.1631,-38.7575 11.2364,-37.188 c 0.3021,-0.9496 -0.2818,-1.9378 -1.2686,-2.2285 -0.1611,-0.038 -0.3424,-0.059 -0.5235,-0.059"
       style="fill:#5ea4ab;fill-opacity:1;fill-rule:nonzero;stroke:none;stroke-width:0.197542" />
    <path
       id="path394"
       d="m 4338.0939,3716.2092 c -0.9464,0 -1.7519,0.6976 -1.8526,1.6278 l -2.7587,27.5373 -12.5051,41.7032 -17.2572,44.4743 11.3975,24.3786 21.3853,24.6498 30.6686,24.4755 c 0.7853,0.6395 1.9733,0.5425 2.6379,-0.2326 0.6444,-0.7557 0.5437,-1.8991 -0.2618,-2.5192 l -30.4269,-24.2623 -20.9827,-24.2041 -10.3907,-22.4214 16.7741,-43.2146 12.6259,-42.149 2.8191,-27.8862 c 0.1009,-0.9882 -0.6644,-1.8603 -1.6914,-1.9571 -0.061,0 -0.1209,0 -0.1813,0"
       style="fill:#5ea4ab;fill-opacity:1;fill-rule:nonzero;stroke:none;stroke-width:0.197542" />
    <path
       id="path395"
       d="m 4149.9145,3627.9968 c -0.4229,0 -0.8658,0.1356 -1.2082,0.4069 -0.7854,0.659 -0.8861,1.7829 -0.2215,2.5387 l 31.1719,35.3857 25.151,35.4826 17.4184,33.1572 8.5582,28.2543 -0.6847,21.4716 -9.6254,13.8946 c -0.5639,0.8333 -0.3423,1.9379 0.5236,2.4999 0.8457,0.5427 2.0136,0.3294 2.5774,-0.5038 l 10.2297,-14.7473 0.7249,-23.0802 -8.8401,-29.1069 -17.6802,-33.6611 -25.3927,-35.8313 -31.2726,-35.5408 c -0.3625,-0.4069 -0.9062,-0.6201 -1.4297,-0.6201"
       style="fill:#5ea4ab;fill-opacity:1;fill-rule:nonzero;stroke:none;stroke-width:0.197542" />
    <path
       id="path396"
       d="m 4149.9145,3627.9968 c -0.4833,0 -0.9666,0.1745 -1.3291,0.5233 l -65.4248,64.0856 -64.7604,71.566 37.9178,31.3162 32.1387,28.6225 25.4932,25.1149 17.1969,19.9021 7.209,12.4606 -1.7921,5.3097 c -0.3222,0.9496 0.2214,1.9572 1.2081,2.2673 0.9666,0.31 2.034,-0.1937 2.3562,-1.1434 l 2.2956,-6.8019 -8.1957,-14.1272 -17.4991,-20.2895 -25.6746,-25.2699 -32.2391,-28.7389 -35.1188,-28.9906 62.2029,-68.7754 65.3443,-63.9889 c 0.7249,-0.6977 0.7249,-1.841 -0.02,-2.5386 -0.3624,-0.3488 -0.8255,-0.5039 -1.3089,-0.5039"
       style="fill:#5ea4ab;fill-opacity:1;fill-rule:nonzero;stroke:none;stroke-width:0.197542" />
    <path
       id="path397"
       d="m 3904.3851,3914.6288 -51.2887,81.5847 -44.9053,82.1856 46.9189,18.2354 43.4957,12.17 38.8039,5.8524 32.1385,-0.8527 22.2312,-7.4803 11.2364,-13.662 c 0.6242,-0.7752 0.5033,-1.8992 -0.3222,-2.5193 -0.8055,-0.6201 -1.9734,-0.4843 -2.6178,0.2907 l -10.5518,12.8482 -20.9222,7.0344 -30.9504,0.7752 -38.24,-5.7942 -43.0931,-12.0536 -42.8916,-16.6852 42.9319,-78.581 49.2952,-78.4067 39.6496,23.0607 38.4211,20.6385 32.8435,15.7743 25.1509,9.922 16.5727,3.5658 5.7592,-3.8371 c 0.8456,-0.562 1.0672,-1.686 0.4631,-2.4999 -0.5839,-0.8139 -1.7519,-1.0271 -2.5977,-0.4456 l -4.41,2.9261 -14.6798,-3.12 -24.7079,-9.7863 -32.642,-15.6774 -38.3004,-20.5804 -42.7909,-24.8823"
       style="fill:#5ea4ab;fill-opacity:1;fill-rule:nonzero;stroke:none;stroke-width:0.197542" />
    <path
       id="path398"
       d="m 3958.4929,4190.9899 c -0.6242,0 -1.2284,0.2907 -1.5907,0.8333 l -14.7,22.4408 -25.4733,17.1889 -35.0381,10.891 -42.2674,3.74 -46.2747,-3.8758 -48.9327,-11.5496 -20.7208,73.775 -11.5384,66.7407 -2.6582,60.0743 5.8397,49.7841 -42.066,-10.7165 -38.7234,-20.7353 c -0.9061,-0.5038 -2.0337,-0.1744 -2.5372,0.6783 -0.5033,0.872 -0.1812,1.9766 0.7249,2.4611 l 39.3678,21.0067 47.5633,12.1117 -6.4438,-54.7257 2.6379,-59.5706 11.4781,-66.3336 19.7342,-70.2288 45.6705,10.7747 46.8788,3.9145 43.2339,-3.8565 35.9846,-11.2591 26.5203,-18.0609 14.9014,-22.7509 c 0.5639,-0.8526 0.3021,-1.9572 -0.5839,-2.4804 -0.3022,-0.1937 -0.6444,-0.2714 -0.9868,-0.2714"
       style="fill:#5ea4ab;fill-opacity:1;fill-rule:nonzero;stroke:none;stroke-width:0.197542" />
    <path
       id="path399"
       d="m 3942.0411,4303.1352 c -0.1209,0 -0.2618,0 -0.3827,0.019 -1.0067,0.213 -1.6713,1.1627 -1.4497,2.1315 l 8.4373,39.6104 -3.6851,41.8776 14.1966,22.8282 -14.0556,41.4319 -24.9698,38.2925 -34.0918,31.8588 -40.7772,23.3126 -44.6839,13.0032 -45.4692,1.9573 -43.0727,-9.3406 -37.5956,-19.7277 -23.6811,-34.9592 -15.5457,-44.862 c -0.3221,-0.9302 -1.3693,-1.4534 -2.3561,-1.1434 -0.9867,0.3295 -1.5102,1.3372 -1.188,2.2867 l 15.8276,45.4821 24.3255,35.9283 39.1461,20.4446 43.8179,9.4956 h 0.2417 l 46.3954,-2.0541 45.5497,-13.3133 41.5021,-23.7778 34.696,-32.4982 25.4127,-39.0677 14.6597,-43.1953 -14.4583,-23.2158 3.6448,-41.2575 -8.5581,-40.1142 c -0.1813,-0.8527 -0.9666,-1.4341 -1.8325,-1.4341"
       style="fill:#5ea4ab;fill-opacity:1;fill-rule:nonzero;stroke:none;stroke-width:0.197542" />
    <path
       id="path400"
       d="m 3942.0411,4303.1352 c -0.2014,0 -0.4027,0.019 -0.6042,0.078 -0.9866,0.3294 -1.5103,1.3565 -1.1678,2.2867 l 21.5666,60.8689 -2.5372,43.7767 20.5597,17.6153 24.1039,10.1933 c 0.9465,0.4069 2.054,0 2.4567,-0.9108 0.4229,-0.9108 0,-1.9766 -0.9464,-2.3836 l -23.822,-10.0963 -18.5259,-15.9489 2.4768,-42.7496 -0.1209,-0.3295 -21.6873,-61.1982 c -0.2619,-0.7364 -0.9868,-1.2015 -1.752,-1.2015"
       style="fill:#5ea4ab;fill-opacity:1;fill-rule:nonzero;stroke:none;stroke-width:0.197542" />
    <path
       id="path401"
       d="m 3937.6915,4280.4038 -0.2014,3.3332 30.5881,28.8937 21.9894,36.6648 11.8406,42.1488 0.9464,44.9008 c 0.02,0.9884 0.8457,1.6085 1.8929,1.7635 1.0269,-0.02 1.8525,-0.8334 1.8324,-1.841 l -1.0068,-45.5402 -12.1426,-43.021 -22.5534,-37.4785 -26.7418,-25.2701 17.358,2.4999 c 1.0471,0.1551 1.9734,-0.5233 2.1345,-1.5115 0.1411,-0.969 -0.5637,-1.8798 -1.5706,-2.0348 l -24.3657,-3.5076"
       style="fill:#5ea4ab;fill-opacity:1;fill-rule:nonzero;stroke:none;stroke-width:0.197542" />
    <path
       id="path402"
       d="m 3939.9065,4272.6329 c -0.6644,0 -1.3088,0.3294 -1.6512,0.9496 -0.4833,0.872 -0.1409,1.9572 0.7651,2.4223 l 21.8688,11.259 c 0.9061,0.4846 2.054,0.1551 2.5373,-0.7363 0.4833,-0.872 0.1409,-1.9572 -0.7652,-2.4224 l -21.8687,-11.259 c -0.2819,-0.1551 -0.5839,-0.2132 -0.8861,-0.2132"
       style="fill:#5ea4ab;fill-opacity:1;fill-rule:nonzero;stroke:none;stroke-width:0.197542" />
    <path
       id="path403"
       d="m 4045.3032,4192.9085 c -0.3625,0 -0.7249,0.097 -1.0471,0.31 l -35.3202,23.0415 -38.3005,20.3671 40.3947,9.8056 35.0383,18.9913 32.199,28.3706 26.8625,35.502 19.6738,40.3466 10.8135,40.8119 -36.186,15.1929 -36.1256,9.8057 -4.8127,45.2689 -14.4986,40.2304 -23.3991,33.7385 -30.5276,25.0568 -35.884,14.7279 c -0.9666,0.3875 -1.4095,1.4341 -0.9867,2.3448 0.4027,0.9108 1.4902,1.3372 2.4366,0.9495 l 36.6492,-15.096 31.2927,-25.7738 23.8823,-34.5524 14.7404,-41.0444 4.571,-43.0596 33.9106,-9.205 39.3475,-16.5107 -11.7196,-44.1063 -19.9759,-40.9473 -27.2855,-36.0641 -32.9641,-29.0293 -35.9042,-19.3789 -31.4537,-7.6352 30.165,-16.0456 35.461,-23.119 c 0.8661,-0.562 1.0875,-1.6859 0.5035,-2.4999 -0.3624,-0.5232 -0.9464,-0.7945 -1.5505,-0.7945"
       style="fill:#5ea4ab;fill-opacity:1;fill-rule:nonzero;stroke:none;stroke-width:0.197542" />
    <path
       id="path404"
       d="m 4015.6819,4192.5016 -24.0034,9.6312 c -0.9665,0.3682 -1.4095,1.434 -1.0068,2.3449 0.4028,0.9301 1.4902,1.3371 2.4365,0.9689 l 23.2986,-9.3405 28.8763,0.4068 c 1.0671,-0.019 1.8726,-0.7945 1.8928,-1.7828 0.02,-0.9884 -0.8055,-1.8022 -1.8325,-1.8216 l -29.6615,-0.4069"
       style="fill:#5ea4ab;fill-opacity:1;fill-rule:nonzero;stroke:none;stroke-width:0.197542" />
    <path
       id="path405"
       d="m 3936.8457,4281.7409 c -0.6645,0 -1.3289,0.3489 -1.6511,0.9496 l -16.754,30.9286 -28.3528,26.8783 -2.658,47.5363 4.1884,41.18 c 0.1009,0.9883 0.9868,1.6666 2.0338,1.6279 1.027,-0.097 1.7922,-0.9884 1.6915,-1.9767 l -4.1884,-40.9087 2.5977,-45.8696 27.8694,-26.5684 16.8747,-31.1611 c 0.4834,-0.8721 0.141,-1.9573 -0.7853,-2.4223 -0.2818,-0.1357 -0.5638,-0.1939 -0.8659,-0.1939"
       style="fill:#5ea4ab;fill-opacity:1;fill-rule:nonzero;stroke:none;stroke-width:0.197542" />
    <path
       id="path406"
       d="m 3936.8457,4281.7409 c -0.9867,0 -1.8122,0.7365 -1.8525,1.686 l -2.336,39.3778 3.3427,34.3004 -16.3914,37.2268 -27.6077,33.6027 c -0.6242,0.7753 -0.5034,1.8992 0.3222,2.5194 0.8055,0.62 1.9935,0.4844 2.6178,-0.2908 l 28.0104,-34.2036 16.8547,-38.2925 -3.4031,-34.9206 2.3157,-39.1258 c 0.061,-0.9884 -0.725,-1.841 -1.772,-1.8798 -0.02,0 -0.061,0 -0.1009,0"
       style="fill:#5ea4ab;fill-opacity:1;fill-rule:nonzero;stroke:none;stroke-width:0.197542" />
    <path
       id="path407"
       d="m 4380.4822,3333.7296 -53.0004,9.0693 -57.793,19.34 c -0.9866,0.3294 -1.4901,1.3565 -1.1679,2.2867 0.3424,0.9495 1.4096,1.4341 2.3963,1.124 l 57.5109,-19.2819 52.0541,-8.895 39.5489,6.6858 37.1928,17.9254 32.1787,28.0993 23.5402,34.2424 -49.4361,9.0499 -57.3902,19.8826 c -0.9868,0.3294 -1.4902,1.3566 -1.1277,2.306 0.3423,0.9303 1.4096,1.3954 2.3761,1.066 l 57.1083,-19.8052 54.6717,-9.9607 -27.0639,-39.2809 -32.9642,-28.7194 -38.1595,-18.2936 -40.4751,-6.8407"
       style="fill:#5ea4ab;fill-opacity:1;fill-rule:nonzero;stroke:none;stroke-width:0.197542" />
    <path
       id="path408"
       d="m 4270.2929,3362.0421 c -0.8659,0 -1.6512,0.5813 -1.8324,1.434 -0.2014,0.9689 0.443,1.9184 1.4497,2.1316 l 37.3944,7.5578 36.5283,18.3905 33.3871,28.2543 28.0305,36.1995 c 0.6042,0.7946 1.7721,0.969 2.5977,0.3683 0.8256,-0.5814 1.0068,-1.7053 0.3826,-2.4999 l -28.393,-36.6453 -34.0717,-28.7582 -37.4344,-18.778 -37.6562,-7.6159 c -0.1208,-0.019 -0.2618,-0.038 -0.3826,-0.038"
       style="fill:#5ea4ab;fill-opacity:1;fill-rule:nonzero;stroke:none;stroke-width:0.197542" />
  </g>
  <path
     style="fill:#f3a542;fill-opacity:1;stroke:#f3a542;stroke-width:1.41732;stroke-opacity:1"
     d="m 535.14204,542.50147 c 58.97922,44.57506 132.24176,41.69334 132.24176,41.69334 l -71.35204,3.08312 z"
     id="path31" />
  <path
     style="fill:#5567b4;fill-opacity:1;stroke:#5567b4;stroke-width:1.41732;stroke-opacity:1"
     d="m 492.52727,341.12441 c 65.84647,-90.07094 46.57702,-86.54739 46.57702,-86.54739 l -55.49603,48.77925 z"
     id="path32" />
</svg>
